<svg width="379" height="404" viewBox="0 0 379 404" fill="none" xmlns="http://www.w3.org/2000/svg">
<path d="M55.5012 373.635C129.508 414.116 249.492 414.128 323.499 373.635C397.506 333.141 397.495 267.514 323.499 227.033C249.503 186.552 129.508 186.552 55.5012 227.033C-18.5058 267.514 -18.495 333.154 55.5012 373.635Z" fill="#F5F5F5"/>
<path d="M323.241 343.718C336.871 343.718 347.921 337.675 347.921 330.22C347.921 322.765 336.871 316.722 323.241 316.722C309.611 316.722 298.561 322.765 298.561 330.22C298.561 337.675 309.611 343.718 323.241 343.718Z" fill="#EBEBEB"/>
<path d="M49.8844 332.155L58.6157 326.374C63.4907 321.808 67.2011 315.816 69.3554 309.03C72.051 300.5 71.6751 294.017 69.742 290.762C67.3685 286.756 61.2147 287.459 60.9677 295.89C60.4522 312.507 56.2315 324.032 49.8844 332.155Z" fill="#BA68C8"/>
<path opacity="0.2" d="M49.8844 332.155L58.6157 326.374C63.4907 321.808 67.2011 315.816 69.3554 309.03C72.051 300.5 71.6751 294.017 69.742 290.762C67.3685 286.756 61.2147 287.459 60.9677 295.89C60.4522 312.507 56.2315 324.032 49.8844 332.155Z" fill="black"/>
<path d="M49.8844 332.772C49.7707 332.77 49.6604 332.727 49.5693 332.649C49.4783 332.571 49.4112 332.461 49.3777 332.337C49.3443 332.212 49.3462 332.078 49.3832 331.955C49.4203 331.831 49.4904 331.725 49.5837 331.65C69.7743 315.625 65.865 293.277 65.8221 293.055C65.8073 292.974 65.8065 292.891 65.8198 292.809C65.8331 292.728 65.8602 292.651 65.8996 292.581C65.939 292.512 65.9899 292.452 66.0494 292.406C66.1089 292.359 66.1758 292.326 66.2463 292.309C66.3168 292.292 66.3895 292.291 66.4604 292.307C66.5312 292.322 66.5987 292.353 66.659 292.398C66.7193 292.443 66.7713 292.502 66.812 292.57C66.8527 292.638 66.8812 292.715 66.896 292.796C66.896 293.03 71.0201 316.143 50.2281 332.661C50.1272 332.74 50.0065 332.779 49.8844 332.772Z" fill="white"/>
<path d="M32.3895 343.755C32.3895 343.755 29.3501 340.92 30.0804 337.074C30.8107 333.228 32.7761 330.467 29.4146 325.511C26.0531 320.556 25.1187 313.949 29.1354 310.374C32.1962 307.601 36.9753 311.52 38.6937 304.211C39.9609 298.861 39.5313 287.015 45.4704 283.07C51.4094 279.126 55.1361 285.067 54.2017 293.104C53.3855 300.291 52.2256 307.206 53.1278 309.129C54.8676 312.827 57.8425 312.322 57.7029 319.077C57.5847 325.363 52.3975 330.565 52.3975 330.565L32.3895 343.755Z" fill="#BA68C8"/>
<path d="M42.3666 337.727C42.2353 337.725 42.1089 337.67 42.0103 337.57C41.9118 337.471 41.8476 337.334 41.8296 337.185C40.2939 322.577 43.9776 297.357 46.9847 289.862C47.01 289.779 47.0505 289.703 47.1036 289.64C47.1566 289.576 47.2209 289.526 47.2921 289.494C47.3634 289.461 47.4399 289.446 47.5165 289.45C47.5932 289.454 47.6682 289.477 47.7364 289.517C47.8006 289.55 47.8582 289.598 47.9061 289.657C47.9539 289.716 47.9909 289.786 48.0149 289.862C48.039 289.937 48.0495 290.018 48.0459 290.099C48.0424 290.179 48.0248 290.258 47.9942 290.331C45.0193 297.727 41.4645 323.021 42.9358 336.987C42.9509 337.149 42.9097 337.311 42.8212 337.438C42.7327 337.565 42.604 337.647 42.4633 337.665L42.3666 337.727Z" fill="white"/>
<path d="M42.0767 326.349C41.9945 326.354 41.9128 326.333 41.8404 326.288C38.1137 324.205 35.751 316.772 35.6544 316.426C35.628 316.35 35.6154 316.268 35.6171 316.185C35.6189 316.103 35.635 316.022 35.6646 315.947C35.6941 315.872 35.7365 315.804 35.7892 315.748C35.8419 315.692 35.9038 315.649 35.9713 315.621C36.0388 315.593 36.1105 315.581 36.1822 315.585C36.2539 315.589 36.3242 315.61 36.3887 315.646C36.4533 315.682 36.5109 315.733 36.5582 315.795C36.6054 315.857 36.6414 315.929 36.6639 316.007C36.6639 316.081 38.9729 323.28 42.3129 325.141C42.4225 325.202 42.5108 325.304 42.5633 325.43C42.6158 325.556 42.6295 325.699 42.602 325.835C42.5746 325.971 42.5076 326.093 42.4122 326.179C42.3167 326.266 42.1984 326.313 42.0767 326.312V326.349Z" fill="white"/>
<path d="M42.0122 331.28C41.9046 331.28 41.7996 331.243 41.7112 331.172C41.6229 331.101 41.5555 331.002 41.5182 330.886C41.4647 330.735 41.4652 330.567 41.5195 330.417C41.5738 330.267 41.6776 330.147 41.8082 330.084C48.0801 327.2 51.9894 318.633 52.0323 318.534C52.0978 318.389 52.211 318.279 52.347 318.229C52.4829 318.18 52.6305 318.194 52.7572 318.269C52.884 318.345 52.9795 318.474 53.0228 318.63C53.0661 318.787 53.0537 318.956 52.9881 319.101C52.8163 319.471 48.8534 328.174 42.2485 331.231C42.1749 331.271 42.0934 331.288 42.0122 331.28Z" fill="white"/>
<path d="M261.241 264.962C261.241 264.962 256.548 256.235 256.086 246.756C255.624 237.277 257.439 233.332 259.931 232.198C262.422 231.064 262.616 234.553 263.894 236.611C265.172 238.67 267.781 237.499 268.748 231.076C269.715 224.654 273.237 213.819 280.562 211.711C288.616 209.418 284.299 220.266 282.269 224.494C280.239 228.722 278.671 234.491 280.003 236.056C281.335 237.622 283.408 234.725 285.373 237.412C287.768 240.654 280.325 252.328 276.051 255.15L261.241 264.962Z" fill="#BA68C8"/>
<path d="M267.674 261.301C267.603 261.298 267.534 261.279 267.47 261.245C267.406 261.211 267.348 261.163 267.3 261.104C267.253 261.044 267.215 260.974 267.191 260.898C267.167 260.822 267.156 260.741 267.158 260.66C267.886 245.412 272.029 230.637 279.187 217.764C279.227 217.696 279.279 217.64 279.34 217.596C279.4 217.553 279.467 217.524 279.538 217.511C279.608 217.499 279.68 217.502 279.748 217.522C279.817 217.542 279.882 217.578 279.939 217.628C280.051 217.724 280.127 217.867 280.149 218.026C280.171 218.185 280.138 218.347 280.057 218.478C273.027 231.163 268.958 245.711 268.243 260.722C268.239 260.803 268.221 260.882 268.19 260.955C268.159 261.028 268.116 261.094 268.063 261.147C268.01 261.201 267.949 261.243 267.882 261.269C267.815 261.295 267.745 261.306 267.674 261.301Z" fill="white"/>
<path d="M268.286 254.016C268.196 254.015 268.108 253.99 268.028 253.942C265.021 252.032 263.357 246.361 263.292 246.127C263.269 246.05 263.258 245.969 263.262 245.888C263.266 245.806 263.284 245.726 263.315 245.653C263.346 245.58 263.389 245.514 263.443 245.46C263.496 245.406 263.558 245.365 263.625 245.338C263.76 245.288 263.908 245.301 264.035 245.375C264.161 245.449 264.258 245.578 264.302 245.733C264.302 245.733 265.913 251.194 268.598 252.858C268.719 252.94 268.808 253.073 268.846 253.23C268.884 253.386 268.868 253.553 268.802 253.696C268.753 253.802 268.678 253.889 268.586 253.946C268.495 254.003 268.39 254.028 268.286 254.016Z" fill="white"/>
<path d="M268.812 250.281C268.693 250.28 268.578 250.233 268.485 250.148C268.392 250.064 268.325 249.946 268.297 249.813C268.279 249.735 268.275 249.654 268.285 249.575C268.295 249.495 268.319 249.419 268.355 249.35C268.391 249.281 268.439 249.221 268.495 249.174C268.551 249.126 268.615 249.092 268.684 249.073C276.438 246.818 279.122 242.158 279.144 242.109C279.182 242.04 279.232 241.98 279.29 241.934C279.348 241.887 279.413 241.854 279.483 241.836C279.552 241.818 279.624 241.816 279.694 241.83C279.764 241.844 279.83 241.874 279.89 241.918C279.95 241.961 280.002 242.018 280.043 242.085C280.084 242.152 280.113 242.227 280.128 242.307C280.144 242.386 280.145 242.468 280.133 242.549C280.121 242.629 280.095 242.706 280.057 242.774C279.939 242.984 277.146 247.878 268.952 250.269L268.812 250.281Z" fill="white"/>
<path d="M144.393 245.807C144.393 245.807 134.094 242.922 133.557 220.784C132.988 196.894 136.081 169.011 123.891 166.756C111.702 164.5 104.936 181.548 105.086 201.455C105.226 218.885 111.347 256.728 144.35 264.149L144.393 245.807Z" fill="#BA68C8"/>
<path opacity="0.2" d="M144.393 245.807C144.393 245.807 134.094 242.922 133.557 220.784C132.988 196.894 136.081 169.011 123.891 166.756C111.702 164.5 104.936 181.548 105.086 201.455C105.226 218.885 111.347 256.728 144.35 264.149L144.393 245.807Z" fill="black"/>
<path d="M144.393 261.881H144.297C136.876 260.328 130.829 255.631 126.329 247.939C112.991 225.098 117.19 182.448 118.575 175.002C118.606 174.844 118.69 174.705 118.808 174.615C118.926 174.526 119.07 174.492 119.209 174.521C119.348 174.56 119.469 174.658 119.547 174.795C119.625 174.933 119.654 175.1 119.628 175.261C118.264 182.657 114.086 224.765 127.221 247.249C129.133 250.736 131.655 253.728 134.628 256.037C137.601 258.346 140.959 259.92 144.49 260.66C144.56 260.675 144.627 260.706 144.687 260.751C144.746 260.795 144.798 260.853 144.838 260.921C144.878 260.989 144.905 261.065 144.92 261.145C144.934 261.225 144.934 261.308 144.92 261.388C144.897 261.528 144.831 261.655 144.735 261.745C144.639 261.835 144.518 261.883 144.393 261.881Z" fill="white"/>
<path d="M144.393 318.695C133.75 320.346 116.47 320.322 106.493 311.299C96.516 302.275 98.5995 294.51 102.434 291.268C106.268 288.026 109.597 284.328 103.003 277.129C96.4086 269.93 85.8193 258.368 82.3826 241.024C78.9459 223.68 80.6428 212.833 87.3873 209.221C93.9277 205.72 95.6568 211.292 99.6627 222.78C103.669 234.269 112.679 224.42 120.39 228.007C128.101 231.594 127.79 238.694 128.273 244.796C128.756 250.898 131.302 252.586 135.673 252.586C140.044 252.586 144.393 255.471 144.393 261.215V318.695Z" fill="#BA68C8"/>
<path d="M144.393 298.553C144.347 298.564 144.3 298.564 144.254 298.553C143.792 298.405 132.784 294.731 116.75 277.832C99.6735 259.835 91.6187 232.839 91.5328 232.568C91.4916 232.413 91.5044 232.245 91.5685 232.1C91.6325 231.955 91.7429 231.845 91.8765 231.791C92.0104 231.74 92.1564 231.752 92.283 231.823C92.4097 231.895 92.5067 232.021 92.5531 232.173C92.6282 232.445 100.608 259.144 117.48 276.919C133.289 293.597 144.426 297.332 144.544 297.369C144.611 297.392 144.675 297.43 144.73 297.48C144.785 297.531 144.83 297.594 144.864 297.665C144.898 297.736 144.92 297.814 144.927 297.894C144.935 297.975 144.929 298.056 144.909 298.134C144.874 298.258 144.805 298.366 144.712 298.442C144.619 298.517 144.507 298.556 144.393 298.553Z" fill="white"/>
<path d="M121.228 282.121C121.12 282.123 121.014 282.086 120.926 282.015C120.837 281.945 120.77 281.844 120.734 281.727C117.287 271.57 116.503 249.838 116.438 248.913C116.435 248.75 116.487 248.593 116.583 248.473C116.679 248.354 116.812 248.282 116.954 248.272C117.094 248.274 117.228 248.336 117.331 248.445C117.435 248.555 117.499 248.704 117.512 248.864C117.512 249.086 118.318 271.311 121.701 281.283C121.726 281.359 121.739 281.44 121.737 281.522C121.735 281.603 121.72 281.684 121.691 281.758C121.662 281.833 121.62 281.9 121.568 281.956C121.517 282.012 121.456 282.056 121.389 282.084C121.337 282.106 121.283 282.118 121.228 282.121Z" fill="white"/>
<path d="M121.142 296.728C120.152 296.737 119.162 296.68 118.178 296.556C118.107 296.546 118.039 296.521 117.977 296.481C117.915 296.441 117.861 296.387 117.817 296.323C117.773 296.259 117.741 296.186 117.722 296.107C117.702 296.029 117.697 295.946 117.705 295.866C117.714 295.785 117.736 295.706 117.771 295.635C117.806 295.564 117.852 295.502 117.908 295.451C117.964 295.401 118.028 295.364 118.096 295.342C118.165 295.32 118.236 295.313 118.307 295.323C118.403 295.323 128.402 296.63 132.988 291.268C133.036 291.203 133.095 291.15 133.161 291.112C133.227 291.075 133.3 291.054 133.374 291.05C133.448 291.046 133.521 291.06 133.59 291.09C133.66 291.12 133.722 291.167 133.775 291.227C133.828 291.286 133.869 291.358 133.897 291.436C133.924 291.515 133.937 291.6 133.935 291.685C133.933 291.77 133.915 291.853 133.883 291.93C133.851 292.006 133.806 292.075 133.75 292.131C130.432 296.063 124.643 296.728 121.142 296.728Z" fill="white"/>
<path d="M113.41 63.31L112.25 55.6304L106.278 60.142C105.733 58.9094 104.959 57.8283 104.012 56.974L106.869 48.0988L101.499 46.7305L97.5685 55.3592C96.1464 55.6346 94.7676 56.1497 93.4767 56.8877L91.7691 50.3792L85.3897 56.1358L85.8086 63.7784C84.5095 65.4486 83.3314 67.2378 82.286 69.1282L77.0235 68.82L73.3291 78.3239L77.8505 80.5427C77.3785 82.5085 77.0798 84.5238 76.9591 86.5581L71.2134 92.6229L72.3625 100.315L78.3445 95.8032C78.887 97.0346 79.661 98.1125 80.6106 98.9588L77.8075 107.846L83.1774 109.202L88.805 102.916C90.1045 102.681 89.7823 99.871 91.1999 99.0697L92.9075 105.554L99.2761 99.8093L99.115 96.8016C100.404 95.1498 105.28 91.5135 106.332 89.6151L107.653 87.1498L111.347 77.6459L109.629 74.0712L107.717 69.4117L113.41 63.31ZM93.917 88.592C89.0197 93.005 87.4732 93.9788 86.6463 88.0743C85.8193 82.1698 88.6224 73.196 93.5197 68.7707C98.4169 64.3454 100.286 64.0372 101.166 69.9294C102.047 75.8216 98.8251 84.2284 93.917 88.592Z" fill="#E0E0E0"/>
<path d="M101.542 46.7305L108.512 51.3407L104.581 59.9448L97.6115 55.3346L101.542 46.7305Z" fill="#F5F5F5"/>
<path d="M119.22 60.2406L113.248 64.7522L106.278 60.142L112.25 55.6304L119.22 60.2406Z" fill="#F5F5F5"/>
<path d="M118.264 82.2191L113.742 80.0126L106.772 75.4025L111.294 77.6089L118.264 82.2191Z" fill="#E0E0E0"/>
<path d="M77.7968 107.846L84.7668 112.444L87.6236 103.569L80.6535 98.9588L77.7968 107.846Z" fill="#E0E0E0"/>
<path d="M99.8131 110.164L92.8538 105.554L91.1462 99.0697L98.1162 103.68L99.8131 110.164Z" fill="#E0E0E0"/>
<path d="M120.369 67.9201L119.22 60.2406L113.248 64.7522C112.699 63.519 111.922 62.438 110.972 61.5842L113.828 52.709L108.512 51.3407L104.571 59.9694C103.149 60.2448 101.77 60.7599 100.479 61.4979L98.7821 55.0141L92.4027 60.7706L92.8215 68.4132C91.521 70.0953 90.3429 71.8969 89.2989 73.8L84.0258 73.4918L80.3313 82.9957L84.8527 85.2145C84.385 87.1856 84.0864 89.2044 83.9613 91.2423L78.2263 97.2207L79.3755 104.913L85.3468 100.401C85.8965 101.631 86.6735 102.708 87.6236 103.557L84.7668 112.432L90.1366 113.8L94.0674 105.171C95.4949 104.899 96.8782 104.38 98.1699 103.631L99.8668 110.114L106.246 104.37L105.827 96.7276C107.126 95.0574 108.304 93.2682 109.35 91.3778L114.623 91.6737L118.318 82.1698L113.732 79.9633C114.207 77.9937 114.509 75.9744 114.634 73.9356L120.369 67.9201ZM100.898 93.2515C96.0112 97.6645 91.3287 96.4688 90.4373 90.5766C89.5459 84.6845 92.8001 76.3146 97.6974 71.9017C102.595 67.4887 107.266 68.6967 108.158 74.5889C109.049 80.481 105.795 88.8386 100.898 93.2515Z" fill="#EBEBEB"/>
<path d="M98.7821 54.9894L91.812 50.3792L85.4327 56.1358L92.4027 60.746L98.7821 54.9894Z" fill="#F5F5F5"/>
<path d="M85.4327 56.1358L85.8515 63.7784L92.8216 68.3886L92.4027 60.746L85.4327 56.1358Z" fill="#E0E0E0"/>
<path d="M89.2989 73.7383L82.3289 69.1282L77.0665 68.8323L84.0258 73.4425L89.2989 73.7383Z" fill="#F5F5F5"/>
<path d="M77.0665 68.8323L73.372 78.3239L80.3314 82.9341L84.0258 73.4425L77.0665 68.8323Z" fill="#E0E0E0"/>
<path d="M83.9613 91.1683L77.002 86.5581L71.2563 92.6229L78.2156 97.233L83.9613 91.1683Z" fill="#F5F5F5"/>
<path d="M79.3755 104.925L72.4054 100.315L71.2563 92.6229L78.2156 97.233L79.3755 104.925Z" fill="#E0E0E0"/>
<path d="M108.512 51.3407L101.542 46.7305L106.869 48.0988L113.828 52.709L108.512 51.3407Z" fill="#F5F5F5"/>
<path d="M82.2 28.45V16.9739L74.2419 21.091C73.8204 19.1439 73.0925 17.3016 72.094 15.6549L77.1094 4.05549L70.9878 0L64.7373 10.7859C62.9954 10.6112 61.2404 10.8076 59.5608 11.3652L58.6801 1.39292L50.024 7.13716L49.1541 18.2312C47.2702 20.1472 45.5379 22.2509 43.9775 24.5178L37.7271 22.0525L31.6055 34.2313L36.6101 39.1619C35.6854 41.8461 34.9667 44.6178 34.4622 47.4455L26.5041 53.8677V65.3562L34.4622 61.2391C34.8837 63.1861 35.6116 65.0284 36.6101 66.6751L31.6269 78.2869L37.7485 82.3424L43.999 71.5565C45.7409 71.7306 47.4958 71.5342 49.1755 70.9772L50.0455 80.9495L58.7016 75.2052L59.5823 64.1112C62.284 62.9798 64.6774 61.0492 66.5201 58.5149L71.0093 60.3269L77.1309 48.1604L73.372 44.4624C74.188 41.3787 74.4904 38.1461 74.2634 34.9339L82.2 28.45ZM54.3521 57.122C47.715 61.5226 43.6124 58.3546 43.6124 49.5903C43.6124 40.826 49.1004 29.9909 55.7482 25.5902C62.3961 21.1896 66.4127 24.3576 66.4127 33.1958C66.4127 42.0341 60.9999 52.709 54.3521 57.122Z" fill="#E0E0E0"/>
<path d="M77.9471 4.59786L70.9878 0L64.7373 10.7859L71.6966 15.3961L77.9471 4.59786Z" fill="#F5F5F5"/>
<path d="M89.1701 21.5841L82.2 16.9739L74.2419 21.091L81.212 25.7012L89.1701 21.5841Z" fill="#F5F5F5"/>
<path d="M56.9833 85.5596L50.024 80.9495L49.1541 70.9772L56.1134 75.5873L56.9833 85.5596Z" fill="#E0E0E0"/>
<path d="M31.5947 78.2869L38.5648 82.8971L43.5802 71.2977L36.6101 66.6875L31.5947 78.2869Z" fill="#E0E0E0"/>
<path d="M89.17 33.1218V21.6457L81.2119 25.7258C80.7949 23.777 80.0666 21.9338 79.064 20.2897L84.0794 8.69032L77.9578 4.62251L71.7074 15.4207C69.9655 15.24 68.2095 15.4365 66.5308 16.0001L65.6502 6.0031L56.994 11.7473L56.1134 22.8414C54.2322 24.7605 52.5001 26.864 50.9368 29.128L44.6864 26.6627L38.5647 38.8414L43.5802 43.7721C42.6505 46.4543 41.9317 49.2265 41.4322 52.0557L33.4742 58.4779V69.9664L41.4322 65.8492C41.8491 67.7982 42.5774 69.6414 43.5802 71.2853L38.5647 82.8847L44.6864 86.9402L50.9368 76.1544C52.6787 76.329 54.4337 76.1326 56.1134 75.575L56.994 85.5473L65.6502 79.8031L66.5201 68.709C68.404 66.7931 70.1362 64.6893 71.6966 62.4224L77.9471 64.8878L84.0687 52.7213L79.0533 47.7906C79.9826 45.1083 80.7015 42.3361 81.2012 39.5071L89.17 33.1218ZM61.3221 61.7938C54.6742 66.1944 49.2829 62.6196 49.2829 53.8184C49.2829 45.0171 54.6528 34.3052 61.3221 29.8922C67.9914 25.4793 73.3505 29.0664 73.3505 37.8676C73.3505 46.6689 67.9592 57.3192 61.3221 61.7321V61.7938Z" fill="#EBEBEB"/>
<path d="M43.9776 24.5425L50.9369 29.1527L44.6864 26.6503L37.7271 22.0278L43.9776 24.5425Z" fill="#F0F0F0"/>
<path d="M37.7264 22.0404L31.6031 34.2233L38.5708 38.8369L44.6941 26.654L37.7264 22.0404Z" fill="#F5F5F5"/>
<path d="M31.5947 34.2066L38.5648 38.8168L43.5802 43.7721L36.6101 39.1743L31.5947 34.2066Z" fill="#E0E0E0"/>
<path d="M34.4622 47.4578L41.4322 52.068L33.4742 58.4902L26.5041 53.88L34.4622 47.4578Z" fill="#F5F5F5"/>
<path d="M26.5041 53.88L33.4742 58.4902V69.9787L26.5041 65.3685V53.88Z" fill="#E0E0E0"/>
<path d="M65.6502 6.00312L58.6802 1.39293L50.024 7.13717L56.9833 11.7474L65.6502 6.00312Z" fill="#F5F5F5"/>
<path d="M155.004 335.188L255.957 268.278C256.179 268.189 256.372 268.022 256.508 267.801C256.645 267.58 256.718 267.316 256.718 267.046C256.718 266.775 256.645 266.511 256.508 266.29C256.372 266.07 256.179 265.903 255.957 265.813L246.624 259.65C246.046 259.316 245.408 259.142 244.761 259.142C244.114 259.142 243.476 259.316 242.898 259.65L141.913 326.497C141.69 326.587 141.497 326.754 141.361 326.975C141.225 327.196 141.152 327.459 141.152 327.73C141.152 328.001 141.225 328.265 141.361 328.485C141.497 328.706 141.69 328.873 141.913 328.963L151.278 335.126C151.851 335.47 152.487 335.654 153.135 335.665C153.782 335.675 154.422 335.512 155.004 335.188Z" fill="#E0E0E0"/>
<path d="M253.186 9.94764L162.157 70.2745C160.804 71.2881 159.677 72.6533 158.87 74.2595C158.062 75.8657 157.595 77.6677 157.507 79.5196V327.373C157.507 330.775 159.59 332.155 162.157 330.454L253.186 270.127C254.541 269.116 255.669 267.751 256.477 266.145C257.285 264.538 257.751 262.735 257.836 260.882V13.0293C257.836 9.62714 255.764 8.24655 253.186 9.94764Z" fill="#455A64"/>
<path d="M162.157 70.2747L253.186 9.94786C255.485 8.41935 257.385 9.36851 257.772 12.0187C257.557 10.3525 257.038 8.75728 256.247 7.33806C255.457 5.91884 254.414 4.70776 253.186 3.78451L249.406 1.31917C247.965 0.479969 246.372 0.0426178 244.756 0.0426178C243.14 0.0426178 241.546 0.479969 240.105 1.31917L149.065 61.5968C147.694 62.5836 146.563 63.9535 145.779 65.5783L158.871 74.207C159.655 72.595 160.786 71.2411 162.157 70.2747Z" fill="#37474F"/>
<path d="M144.393 318.695C144.482 320.547 144.949 322.348 145.756 323.955C146.564 325.561 147.691 326.926 149.044 327.94L152.835 330.405C154.147 331.158 155.583 331.585 157.049 331.657C158.515 331.73 159.977 331.446 161.341 330.824C159.193 331.786 157.485 330.368 157.485 327.323V79.5196C157.539 77.6598 158.009 75.8473 158.849 74.2561L145.757 65.6274C144.929 67.2065 144.46 68.9997 144.393 70.8416V318.695Z" fill="#263238"/>
<path d="M164.659 103.298L250.716 46.2868C252.263 45.276 253.508 46.1019 253.508 48.1358V231.582C253.457 232.694 253.177 233.776 252.692 234.74C252.206 235.704 251.529 236.522 250.716 237.129L164.691 294.14C163.145 295.163 161.899 294.337 161.899 292.291V108.845C161.948 107.737 162.223 106.657 162.703 105.693C163.182 104.73 163.852 103.909 164.659 103.298Z" fill="white"/>
<path d="M207.672 49.504C207.197 49.862 206.801 50.3429 206.518 50.9081C206.234 51.4733 206.07 52.1071 206.039 52.7583C206.039 53.9909 206.769 54.447 207.672 53.843C208.148 53.4873 208.545 53.0069 208.829 52.4412C209.112 51.8755 209.275 51.2407 209.304 50.5888C209.304 49.3931 208.574 48.9124 207.672 49.504Z" fill="#37474F"/>
<path d="M207.672 274.405C205.794 275.814 204.232 277.712 203.113 279.943C201.993 282.175 201.347 284.678 201.228 287.249C201.228 291.97 204.117 293.893 207.672 291.527C209.548 290.116 211.11 288.218 212.229 285.987C213.349 283.756 213.995 281.253 214.115 278.682C214.137 273.961 211.237 272.038 207.672 274.405Z" fill="#37474F"/>
<path d="M192.217 68.5858C191.273 69.3049 190.49 70.2686 189.93 71.3992C189.371 72.5298 189.05 73.7955 188.995 75.0943C188.995 77.4857 190.456 78.4595 192.217 77.2638C193.171 76.5515 193.965 75.5907 194.534 74.4597C195.103 73.3288 195.432 72.0595 195.493 70.7553C195.493 68.3639 194.032 67.3901 192.217 68.5858Z" fill="#37474F"/>
<path d="M200.24 67.7722C200.24 69.3747 201.314 69.9787 202.57 69.1282L224.05 54.8662C224.715 54.3892 225.273 53.7387 225.678 52.9676C226.083 52.1965 226.323 51.3266 226.38 50.4285C226.38 48.8384 225.306 48.2344 224.05 49.0849L202.57 63.3469C201.906 63.8227 201.349 64.4712 200.944 65.24C200.539 66.0089 200.298 66.8764 200.24 67.7722Z" fill="#37474F"/>
<path d="M151.653 111.236C152.416 111.806 153.05 112.574 153.505 113.478C153.961 114.381 154.224 115.396 154.274 116.438C154.274 118.361 153.103 119.138 151.653 118.176C150.894 117.604 150.262 116.836 149.809 115.932C149.355 115.028 149.093 114.015 149.044 112.974C149.044 111.064 150.214 110.287 151.653 111.236Z" fill="#37474F"/>
<path d="M151.653 134.386C152.416 134.956 153.05 135.723 153.505 136.627C153.961 137.531 154.224 138.545 154.274 139.588C154.274 141.498 153.103 142.275 151.653 141.326C150.894 140.754 150.262 139.985 149.809 139.082C149.355 138.178 149.093 137.165 149.044 136.124C149.044 134.201 150.214 133.424 151.653 134.386Z" fill="#37474F"/>
<path d="M150.837 111.705C151.599 112.274 152.234 113.042 152.689 113.946C153.144 114.85 153.408 115.864 153.458 116.906C153.458 118.817 152.287 119.594 150.837 118.645C150.075 118.075 149.441 117.307 148.985 116.403C148.53 115.499 148.267 114.485 148.217 113.443C148.227 111.52 149.398 110.78 150.837 111.705Z" fill="#455A64"/>
<path d="M150.837 134.842C151.601 135.413 152.236 136.183 152.691 137.089C153.147 137.995 153.409 139.011 153.458 140.056C153.458 141.967 152.287 142.743 150.837 141.782C150.073 141.214 149.437 140.447 148.982 139.543C148.526 138.638 148.264 137.623 148.217 136.58C148.227 134.669 149.398 133.893 150.837 134.842Z" fill="#455A64"/>
<path d="M270.928 53.9416C270.928 51.8954 269.682 51.0695 268.136 52.0926L257.836 58.9093L182.111 109.104C181.298 109.71 180.621 110.529 180.136 111.493C179.65 112.457 179.37 113.539 179.319 114.651V298.047C179.319 300.094 180.565 300.919 182.111 299.896L257.869 249.69L268.136 242.885C268.949 242.279 269.626 241.46 270.111 240.496C270.597 239.532 270.877 238.45 270.928 237.338V53.9416Z" fill="white"/>
<path d="M272.002 53.9416C272.07 53.3235 271.977 52.6962 271.736 52.1382C271.494 51.5802 271.115 51.1162 270.645 50.8045C270.175 50.4927 269.635 50.3468 269.093 50.3852C268.552 50.4236 268.032 50.6445 267.599 51.0202L257.772 57.541L181.574 108.081C180.593 108.791 179.777 109.765 179.197 110.918C178.617 112.072 178.29 113.369 178.245 114.7V298.047C178.202 298.663 178.305 299.28 178.543 299.834C178.781 300.387 179.146 300.856 179.598 301.191C179.983 301.447 180.421 301.579 180.865 301.573C181.495 301.55 182.109 301.342 182.648 300.969L258.9 250.429L268.705 243.933C269.68 243.215 270.492 242.24 271.071 241.088C271.65 239.936 271.981 238.642 272.034 237.314L272.002 53.9416ZM257.794 248.321L256.913 248.913L181.617 298.812C181.491 298.923 181.344 299.001 181.188 299.039C181.032 299.078 180.87 299.076 180.715 299.034C180.575 298.935 180.436 298.59 180.436 298.023V114.651C180.491 113.756 180.723 112.887 181.114 112.11C181.505 111.332 182.044 110.667 182.691 110.164L257.912 60.2406L268.651 53.1034C268.778 52.9918 268.925 52.914 269.081 52.8756C269.237 52.8373 269.398 52.8393 269.553 52.8815C269.693 52.9802 269.833 53.3253 269.833 53.8923V237.338C269.777 238.233 269.545 239.102 269.155 239.879C268.764 240.657 268.225 241.322 267.577 241.825L257.772 248.321H257.794Z" fill="#BA68C8"/>
<path d="M225.123 96.5551C234.789 90.1698 242.575 95.3224 242.575 108.13C242.575 120.937 234.757 136.481 225.123 142.817C215.49 149.153 207.672 144.05 207.672 131.255C207.672 118.46 215.49 102.953 225.123 96.5551Z" fill="#BA68C8"/>
<path d="M225.123 106.614C228.249 104.543 230.783 106.219 230.783 110.312C230.677 112.566 230.109 114.76 229.126 116.716C228.142 118.671 226.771 120.333 225.123 121.566C221.998 123.637 219.464 121.96 219.464 117.868C219.57 115.613 220.138 113.419 221.121 111.464C222.104 109.509 223.476 107.847 225.123 106.614Z" fill="#BA68C8"/>
<path d="M236.153 128.703C236.153 121.899 231.997 119.138 226.853 122.54L223.631 124.672C218.497 128.074 214.33 136.358 214.33 143.162V144.999C217.305 146.121 221.042 145.517 225.07 142.817C229.531 139.659 233.304 135.37 236.099 130.281L236.153 128.703Z" fill="#BA68C8"/>
<path opacity="0.7" d="M225.123 106.614C228.249 104.543 230.783 106.219 230.783 110.312C230.677 112.566 230.109 114.76 229.126 116.716C228.142 118.671 226.771 120.333 225.123 121.566C221.998 123.637 219.464 121.96 219.464 117.868C219.57 115.613 220.138 113.419 221.121 111.464C222.104 109.509 223.476 107.847 225.123 106.614Z" fill="white"/>
<path opacity="0.7" d="M236.153 128.703C236.153 121.899 231.997 119.138 226.853 122.54L223.631 124.672C218.497 128.074 214.33 136.358 214.33 143.162V144.999C217.305 146.121 221.042 145.517 225.07 142.817C229.531 139.659 233.304 135.37 236.099 130.281L236.153 128.703Z" fill="white"/>
<path d="M191.358 170.984L213.815 156.105C214.889 155.427 215.673 155.97 215.673 157.338V158.189C215.639 158.929 215.453 159.65 215.13 160.293C214.807 160.936 214.356 161.482 213.815 161.887L191.358 176.765C190.338 177.443 189.5 176.888 189.5 175.532V174.682C189.535 173.941 189.721 173.22 190.044 172.578C190.367 171.935 190.817 171.389 191.358 170.984Z" fill="#BA68C8"/>
<path opacity="0.1" d="M191.358 170.984L213.815 156.105C214.889 155.427 215.673 155.97 215.673 157.338V158.189C215.639 158.929 215.453 159.65 215.13 160.293C214.807 160.936 214.356 161.482 213.815 161.887L191.358 176.765C190.338 177.443 189.5 176.888 189.5 175.532V174.682C189.535 173.941 189.721 173.22 190.044 172.578C190.367 171.935 190.817 171.389 191.358 170.984Z" fill="black"/>
<path d="M190.434 188.944L258.373 143.927C258.878 143.581 259.297 143.853 259.297 144.543V153.64C259.278 154.009 259.185 154.368 259.025 154.689C258.864 155.01 258.641 155.284 258.373 155.489L190.434 200.506C189.919 200.851 189.5 200.568 189.5 199.89V190.793C189.518 190.422 189.613 190.061 189.775 189.74C189.937 189.419 190.163 189.146 190.434 188.944Z" fill="#BA68C8"/>
<path opacity="0.2" d="M190.434 188.944L258.373 143.927C258.878 143.581 259.297 143.853 259.297 144.543V153.64C259.278 154.009 259.185 154.368 259.025 154.689C258.864 155.01 258.641 155.284 258.373 155.489L190.434 200.506C189.919 200.851 189.5 200.568 189.5 199.89V190.793C189.518 190.422 189.613 190.061 189.775 189.74C189.937 189.419 190.163 189.146 190.434 188.944Z" fill="white"/>
<path d="M191.358 211.452L213.815 196.574C214.889 195.896 215.673 196.451 215.673 197.807V198.657C215.639 199.398 215.454 200.12 215.131 200.762C214.808 201.405 214.357 201.951 213.815 202.355L191.358 217.233C190.338 217.924 189.5 217.369 189.5 216.001V215.15C189.537 214.41 189.724 213.69 190.046 213.048C190.369 212.406 190.818 211.859 191.358 211.452Z" fill="#BA68C8"/>
<path opacity="0.1" d="M191.358 211.452L213.815 196.574C214.889 195.896 215.673 196.451 215.673 197.807V198.657C215.639 199.398 215.454 200.12 215.131 200.762C214.808 201.405 214.357 201.951 213.815 202.355L191.358 217.233C190.338 217.924 189.5 217.369 189.5 216.001V215.15C189.537 214.41 189.724 213.69 190.046 213.048C190.369 212.406 190.818 211.859 191.358 211.452Z" fill="black"/>
<path d="M190.434 229.412L258.373 184.395C258.878 184.05 259.297 184.334 259.297 185.011V194.109C259.278 194.478 259.185 194.837 259.025 195.158C258.864 195.479 258.641 195.752 258.373 195.958L190.434 240.975C189.919 241.32 189.5 241.049 189.5 240.358V231.261C189.518 230.891 189.613 230.53 189.775 230.209C189.937 229.888 190.163 229.615 190.434 229.412Z" fill="#BA68C8"/>
<path opacity="0.2" d="M190.434 229.412L258.373 184.395C258.878 184.05 259.297 184.334 259.297 185.011V194.109C259.278 194.478 259.185 194.837 259.025 195.158C258.864 195.479 258.641 195.752 258.373 195.958L190.434 240.975C189.919 241.32 189.5 241.049 189.5 240.358V231.261C189.518 230.891 189.613 230.53 189.775 230.209C189.937 229.888 190.163 229.615 190.434 229.412Z" fill="white"/>
<path d="M217.531 234.577L244.38 216.814C245.454 216.124 246.248 216.679 246.248 218.047V227.563C246.213 228.305 246.026 229.027 245.701 229.67C245.376 230.312 244.923 230.858 244.38 231.261L217.531 249.036C216.457 249.714 215.673 249.16 215.673 247.804V238.275C215.71 237.535 215.897 236.816 216.22 236.174C216.543 235.532 216.991 234.985 217.531 234.577Z" fill="#BA68C8"/>
<path opacity="0.1" d="M217.531 234.577L244.38 216.814C245.454 216.124 246.248 216.679 246.248 218.047V227.563C246.213 228.305 246.026 229.027 245.701 229.67C245.376 230.312 244.923 230.858 244.38 231.261L217.531 249.036C216.457 249.714 215.673 249.16 215.673 247.804V238.275C215.71 237.535 215.897 236.816 216.22 236.174C216.543 235.532 216.991 234.985 217.531 234.577Z" fill="black"/>
<path d="M281.109 194.417C281.109 194.417 267.921 173.535 267.148 170.996C266.536 169.122 267.148 166.337 267.341 165.042C267.534 163.748 267.706 160.863 267.9 160.112C268.222 158.706 266.643 158.99 265.752 160.272C264.86 161.554 264.56 164.118 264.098 164.537C263.636 164.956 260.124 159.076 258.288 156.364C256.451 153.652 255.302 152.001 254.174 153.011C253.369 153.739 253.97 155.316 255.302 157.634C256.08 158.882 256.797 160.178 257.45 161.517C257.654 162.022 256.559 162.059 255.968 163.107C255.506 163.92 255.968 165.239 255.323 165.868C254.927 166.214 254.655 166.716 254.56 167.278C254.465 167.839 254.553 168.421 254.808 168.913C256.003 171.068 257.545 172.942 259.351 174.435C261.327 176.001 262.122 176.555 263.292 178.688C264.463 180.82 274.966 202.602 275.675 203.908C276.384 205.215 277.748 207.878 279.821 207.951C281.893 208.025 298.862 191.261 299.732 190.423C302.524 187.748 303.416 187.366 303.888 189.77C304.051 190.624 304.173 191.488 304.253 192.358C304.586 195.415 306.401 206.337 306.401 206.337C306.401 206.337 314.993 211.107 322.049 208.802C329.105 206.497 331.489 203.058 331.489 203.058L327.956 196.451C328.912 193.726 333.326 182.682 334.754 174.953L312.63 170.848C312.179 170.737 311.449 170.528 310.482 170.244C309.269 169.874 306.186 168.654 303.856 170.996C296.252 178.602 281.131 194.417 281.131 194.417" fill="#FFA8A7"/>
<path d="M324.97 322.541L321.007 328.864C322.808 329.829 324.776 330.314 326.764 330.282C330.319 330.43 331.296 329.049 331.425 328.778C332.026 327.299 331.092 324.636 330.834 322.343L324.97 322.541Z" fill="#37474F"/>
<path d="M321.233 325.832C321.233 325.832 316.421 325.474 313.103 325.006C309.784 324.537 307.153 326.386 307.926 327.952C308.7 329.517 310.536 330.824 313.393 331.921C315.831 332.87 318.763 333.548 321.297 334.387C323.832 335.225 325.593 336.322 327.064 335.73C328.708 335.077 329.416 334.325 329.277 332.944C328.918 330.98 328.474 329.039 327.945 327.126L321.233 325.832Z" fill="#37474F"/>
<path d="M331.425 316.192C331.425 316.192 330.823 321.936 330.78 323.169C330.737 324.402 325.894 324.796 324.97 322.541L324.82 315.514L331.425 316.192Z" fill="#F28F8F"/>
<path d="M326.549 319.718L328.278 328.445C328.278 328.445 328.439 329.505 324.487 330.183C320.535 330.861 314.327 327.804 313.264 327.188C312.201 326.571 312.083 325.326 315.97 325.573C319.858 325.819 321.233 325.832 321.233 325.832L319.966 321.973L326.549 319.718Z" fill="#FFA8A7"/>
<path d="M334.69 174.879L337.428 174.004C337.428 174.004 343.152 194.799 343.786 196.808C344.42 198.817 345.139 200.938 343.904 203.415C342.433 206.361 334.69 218.207 334.69 218.207L329.771 212.685L335.355 200.95L330.415 189.486L334.69 174.879Z" fill="#F28F8F"/>
<path d="M306.562 147.871C305.92 146.488 305.594 144.94 305.615 143.373C305.636 141.806 306.002 140.27 306.681 138.91C309.408 133.104 315.487 130.281 322.726 131.353C326.076 131.859 330.029 135.051 332.187 139.822C334.571 145.11 334.797 155.76 335.409 159.791L306.562 147.871Z" fill="#37474F"/>
<path d="M306.369 150.152C306.369 150.152 304.651 153.911 304.951 154.256C305.397 154.555 305.884 154.763 306.391 154.873L306.369 150.152Z" fill="#FFA8A7"/>
<path d="M311.589 138.269C309.72 139.662 306.498 142.225 306.358 150.669C306.208 159.298 307.282 162.145 308.399 163.144C309.151 163.822 313.565 163.477 315.455 162.971C317.345 162.466 322.79 159.372 324.755 154.675C327.064 149.153 326.592 141.116 323.166 138.651C321.422 137.467 319.445 136.811 317.42 136.745C315.395 136.678 313.389 137.202 311.589 138.269Z" fill="#FFA8A7"/>
<path d="M331.425 203.008C334.733 208.925 337.869 214.102 338.556 220.784C339.974 234.824 335.334 250.873 334.335 261.264C336.213 264.22 337.296 267.743 337.45 271.397C337.45 275.699 331.425 316.192 331.425 316.192C331.425 316.192 327.043 317.721 324.82 315.514L320.685 241.024L322.833 231.952L331.425 203.008Z" fill="#BA68C8"/>
<path opacity="0.2" d="M331.425 203.008C334.733 208.925 337.869 214.102 338.556 220.784C339.974 234.824 335.334 250.873 334.335 261.264C336.213 264.22 337.296 267.743 337.45 271.397C337.45 275.699 331.425 316.192 331.425 316.192C331.425 316.192 327.043 317.721 324.82 315.514L320.685 241.024L322.833 231.952L331.425 203.008Z" fill="black"/>
<path d="M320.685 241.024L322.833 231.952C326.946 230.709 330.912 228.9 334.647 226.565C334.647 226.565 332.413 231.237 325.99 233.801L322.672 245.449L322.393 272.137L320.685 241.024Z" fill="#BA68C8"/>
<path opacity="0.3" d="M320.685 241.024L322.833 231.952C326.946 230.709 330.912 228.9 334.647 226.565C334.647 226.565 332.413 231.237 325.99 233.801L322.672 245.449L322.393 272.137L320.685 241.024Z" fill="black"/>
<path d="M331.425 203.008C333.197 206.337 337.428 212.007 336.526 217.468C335.452 224.075 332.338 228.722 322.865 231.952L313.973 268.932C313.973 268.932 318.602 273.862 320.019 278.633C321.437 283.403 326.549 319.742 326.549 319.742C326.549 319.742 324.959 322.713 319.965 321.998C319.965 321.998 302.556 276.389 301.332 273.419C299.846 270.41 299.326 266.899 299.861 263.496C300.409 258.713 306.305 206.361 306.305 206.361L331.425 203.008Z" fill="#BA68C8"/>
<path opacity="0.2" d="M331.425 203.008C333.197 206.337 337.428 212.007 336.526 217.468C335.452 224.075 332.338 228.722 322.865 231.952L313.973 268.932C313.973 268.932 318.602 273.862 320.019 278.633C321.437 283.403 326.549 319.742 326.549 319.742C326.549 319.742 324.959 322.713 319.965 321.998C319.965 321.998 302.556 276.389 301.332 273.419C299.846 270.41 299.326 266.899 299.861 263.496C300.409 258.713 306.305 206.361 306.305 206.361L331.425 203.008Z" fill="black"/>
<path d="M334.69 174.879L312.566 170.774C312.115 170.663 311.384 170.454 310.418 170.17C310.418 170.17 309.473 186.096 303.792 189.745C303.931 190.509 304.049 191.36 304.157 192.334C304.49 195.391 306.305 206.312 306.305 206.312C306.305 206.312 314.896 211.082 321.952 208.777C329.008 206.472 331.392 203.033 331.392 203.033L327.859 196.426C328.847 193.677 333.293 182.632 334.69 174.879Z" fill="#BA68C8"/>
<path opacity="0.7" d="M334.69 174.879L312.566 170.774C312.115 170.663 311.384 170.454 310.418 170.17C310.418 170.17 309.473 186.096 303.792 189.745C303.931 190.509 304.049 191.36 304.157 192.334C304.49 195.391 306.305 206.312 306.305 206.312C306.305 206.312 314.896 211.082 321.952 208.777C329.008 206.472 331.392 203.033 331.392 203.033L327.859 196.426C328.847 193.677 333.293 182.632 334.69 174.879Z" fill="white"/>
<path d="M328.858 193.8C325.92 195.825 322.841 197.569 319.654 199.015C322.547 198.948 325.379 198.05 327.891 196.401L328.858 193.8Z" fill="#BA68C8"/>
<path d="M311.041 138.688C311.041 138.688 309.967 146.7 312.501 151.409C312.501 151.409 313.446 148.216 315.798 148.82C318.15 149.424 318.279 152.987 316.625 154.984C316.205 155.544 315.656 155.957 315.04 156.175C314.425 156.393 313.768 156.407 313.146 156.216C313.146 156.216 312.77 162.01 312.566 166.867C312.362 171.723 311.245 182.312 316.003 186.589C320.76 190.867 332.703 192.371 338.298 183.397C341.413 178.404 337.278 169.578 335.355 159.68C333.583 150.583 332.585 137.098 324.175 134.928C315.766 132.759 311.041 138.688 311.041 138.688Z" fill="#37474F"/>
<path d="M341.896 29.2143L340.124 30.447C340.273 29.7233 340.355 28.9838 340.371 28.2405C340.371 24.111 337.847 22.4469 334.733 24.5425C333.785 25.1987 332.939 26.0319 332.23 27.0078C332.23 21.4608 328.836 19.205 324.648 21.9785C322.441 23.6306 320.604 25.8566 319.287 28.4759C317.969 31.0953 317.208 34.0341 317.066 37.0541C317.066 37.3376 317.066 37.6088 317.066 37.88C315.987 37.7241 314.895 38.0124 313.983 38.6935C312.342 39.9209 310.977 41.5752 309.997 43.5221C309.017 45.469 308.451 47.6536 308.345 49.8985C308.345 50.4204 308.391 50.9409 308.485 51.4517L307.54 52.0803C304.973 53.7814 302.889 57.0973 302.889 59.4764C302.889 61.8554 304.973 62.4224 307.54 60.709L341.907 37.9663C344.473 36.2652 346.557 32.9493 346.557 30.5702C346.557 28.1912 344.463 27.5009 341.896 29.2143Z" fill="#EBEBEB"/>
</svg>
