<svg width="504" height="397" viewBox="0 0 504 397" fill="none" xmlns="http://www.w3.org/2000/svg">
<path d="M504 348.878H0V349.144H504V348.878Z" fill="#EBEBEB"/>
<path d="M333.87 368.921H325.11V369.188H333.87V368.921Z" fill="#EBEBEB"/>
<path d="M238.896 301.352H44.2613C42.7365 301.349 41.2751 300.707 40.1979 299.566C39.1207 298.425 38.5157 296.879 38.5157 295.267V6.0313C38.5289 4.42866 39.1398 2.89628 40.2156 1.767C41.2914 0.637717 42.7452 0.0027454 44.2613 0H238.896C240.423 0 241.886 0.641052 242.966 1.78213C244.045 2.92321 244.652 4.47085 244.652 6.08458V295.267C244.652 296.881 244.045 298.429 242.966 299.57C241.886 300.711 240.423 301.352 238.896 301.352ZM44.2613 0.213121C42.8034 0.215944 41.4061 0.830172 40.3761 1.92099C39.3461 3.0118 38.7677 4.49006 38.7677 6.0313V295.267C38.7677 296.808 39.3461 298.287 40.3761 299.377C41.4061 300.468 42.8034 301.082 44.2613 301.085H238.896C240.355 301.082 241.753 300.469 242.785 299.378C243.816 298.288 244.397 296.809 244.4 295.267V6.0313C244.397 4.48909 243.816 3.01085 242.785 1.92034C241.753 0.829826 240.355 0.215938 238.896 0.213121H44.2613Z" fill="#EBEBEB"/>
<path d="M456.937 301.352H262.292C260.766 301.349 259.304 300.707 258.225 299.566C257.146 298.426 256.539 296.88 256.536 295.267V6.0313C256.552 4.42769 257.165 2.89532 258.242 1.76633C259.32 0.637345 260.775 0.00271546 262.292 0H456.937C458.451 0.00554591 459.902 0.641757 460.976 1.77074C462.049 2.89972 462.659 4.4305 462.672 6.0313V295.267C462.672 296.877 462.068 298.422 460.993 299.562C459.918 300.703 458.46 301.346 456.937 301.352ZM262.292 0.213121C260.833 0.215938 259.435 0.829826 258.403 1.92034C257.371 3.01085 256.791 4.48909 256.788 6.0313V295.267C256.791 296.809 257.371 298.288 258.403 299.378C259.435 300.469 260.833 301.082 262.292 301.085H456.937C458.395 301.082 459.794 300.469 460.825 299.378C461.857 298.288 462.438 296.809 462.44 295.267V6.0313C462.438 4.48909 461.857 3.01085 460.825 1.92034C459.794 0.829826 458.395 0.215938 456.937 0.213121H262.292Z" fill="#EBEBEB"/>
<path d="M79.0877 359.022H52.8797V359.288H79.0877V359.022Z" fill="#EBEBEB"/>
<path d="M287.562 356.134H233.029V356.401H287.562V356.134Z" fill="#EBEBEB"/>
<path d="M149.073 368.921H80.0957V369.188H149.073V368.921Z" fill="#EBEBEB"/>
<path d="M462.44 361.388H405.317V361.654H462.44V361.388Z" fill="#EBEBEB"/>
<path d="M396.346 361.388H373.091V361.654H396.346V361.388Z" fill="#EBEBEB"/>
<path d="M315.292 362.634H260.296V362.901H315.292V362.634Z" fill="#EBEBEB"/>
<path d="M153.377 348.739H269.378L269.378 66.9836H153.377L153.377 348.739Z" fill="#F0F0F0"/>
<path d="M49.4827 348.739H268.037L268.037 66.9836H49.4827L49.4827 348.739Z" fill="#F5F5F5"/>
<path d="M262.14 342.356V73.3879H159.435V342.356H262.14Z" fill="#F0F0F0"/>
<path d="M160.998 342.345L160.998 73.3772H159.425L159.425 342.345H160.998Z" fill="#F0F0F0"/>
<path d="M173.144 201.665C175.989 201.665 178.295 199.227 178.295 196.22C178.295 193.212 175.989 190.774 173.144 190.774C170.299 190.774 167.993 193.212 167.993 196.22C167.993 199.227 170.299 201.665 173.144 201.665Z" fill="#E0E0E0"/>
<path d="M171.128 200.535C173.973 200.535 176.279 198.097 176.279 195.09C176.279 192.083 173.973 189.645 171.128 189.645C168.283 189.645 165.977 192.083 165.977 195.09C165.977 198.097 168.283 200.535 171.128 200.535Z" fill="white"/>
<path d="M158.095 342.345L158.095 73.3772H55.3896L55.3896 342.345H158.095Z" fill="#F0F0F0"/>
<path d="M148.408 201.665C151.253 201.665 153.559 199.227 153.559 196.22C153.559 193.212 151.253 190.774 148.408 190.774C145.563 190.774 143.257 193.212 143.257 196.22C143.257 199.227 145.563 201.665 148.408 201.665Z" fill="#E0E0E0"/>
<path d="M146.392 200.535C149.237 200.535 151.543 198.097 151.543 195.09C151.543 192.083 149.237 189.645 146.392 189.645C143.547 189.645 141.241 192.083 141.241 195.09C141.241 198.097 143.547 200.535 146.392 200.535Z" fill="white"/>
<path d="M280.184 205.661H330.473V66.9836H280.184V205.661Z" fill="#E6E6E6"/>
<path d="M278.027 205.661H328.326V66.9836H278.027V205.661Z" fill="#F5F5F5"/>
<path d="M324.475 199.566V73.0895H281.887V199.566H324.475Z" fill="white"/>
<path d="M283.51 199.566V73.0895H281.887V199.566H283.51Z" fill="#E6E6E6"/>
<path d="M279.629 171.125H326.733V162.93H279.629V171.125Z" fill="#F5F5F5"/>
<path d="M342.206 205.661H392.495V66.9836H342.206V205.661Z" fill="#E6E6E6"/>
<path d="M340.049 205.661H390.348V66.9836H340.049V205.661Z" fill="#F5F5F5"/>
<path d="M386.487 199.566V73.0895H343.899V199.566H386.487Z" fill="white"/>
<path d="M345.532 199.566V73.0895H343.909V199.566H345.532Z" fill="#E6E6E6"/>
<path d="M341.652 171.125H388.755V162.93H341.652V171.125Z" fill="#F5F5F5"/>
<path d="M404.228 205.661H454.517V66.9836H404.228V205.661Z" fill="#E6E6E6"/>
<path d="M402.071 205.661H452.37V66.9836H402.071V205.661Z" fill="#F5F5F5"/>
<path d="M448.51 199.566V73.0895H405.922V199.566H448.51Z" fill="white"/>
<path d="M407.544 199.566V73.0895H405.922V199.566H407.544Z" fill="#E6E6E6"/>
<path d="M403.664 171.125H450.768V162.93H403.664V171.125Z" fill="#F5F5F5"/>
<path d="M123.399 51.7988L124.821 52.5661H194.121V37.8928L123.399 51.7988Z" fill="#E0E0E0"/>
<path d="M191.439 51.7988H123.399L126.081 37.8928H194.121L191.439 51.7988Z" fill="#F5F5F5"/>
<path d="M386.427 259.122H333.87V348.877H386.427V259.122Z" fill="#F0F0F0"/>
<path d="M386.427 259.122L421.223 236.329V348.877H386.427V259.122Z" fill="#E0E0E0"/>
<path d="M333.87 259.122L368.666 236.329H421.223L386.427 259.122H333.87Z" fill="#EBEBEB"/>
<path d="M344.917 255.925L369.956 239.526H410.175L385.137 255.925H344.917Z" fill="#E0E0E0"/>
<path d="M369.956 255.925V239.526H410.175L385.137 255.925H369.956Z" fill="#E6E6E6"/>
<path d="M252 397C359.939 397 447.441 391.599 447.441 384.937C447.441 378.275 359.939 372.875 252 372.875C144.061 372.875 56.5589 378.275 56.5589 384.937C56.5589 391.599 144.061 397 252 397Z" fill="#F5F5F5"/>
<path d="M122.845 74.933C120.829 78.0552 121.464 80.3249 123.168 86.5267C123.873 89.0948 124.962 91.6523 128.308 87.8694C131.655 84.0865 134.911 76.8937 130.617 75.6789C128.088 74.949 125.457 74.6965 122.845 74.933Z" fill="#263238"/>
<path d="M122.754 374.974H115.275L114.952 356.635H122.442L122.754 374.974Z" fill="#FFC3BD"/>
<path d="M167.721 374.974H160.232L156.895 356.635H164.385L167.721 374.974Z" fill="#FFC3BD"/>
<path d="M159.718 374.026H168.134C168.281 374.025 168.423 374.077 168.537 374.174C168.65 374.271 168.729 374.407 168.759 374.558L170.08 381.602C170.108 381.775 170.1 381.953 170.056 382.123C170.012 382.292 169.933 382.45 169.826 382.584C169.718 382.718 169.584 382.825 169.433 382.899C169.282 382.972 169.117 383.01 168.951 383.009C166.007 383.009 164.586 382.774 160.887 382.774C158.609 382.774 153.922 383.019 150.807 383.019C147.692 383.019 147.329 379.737 148.619 379.439C154.426 378.107 156.683 376.242 158.528 374.505C158.859 374.203 159.28 374.033 159.718 374.026Z" fill="#263238"/>
<path d="M115.345 374.026H123.52C123.667 374.025 123.809 374.077 123.923 374.174C124.036 374.271 124.115 374.407 124.145 374.558L125.456 381.602C125.487 381.774 125.482 381.951 125.44 382.121C125.399 382.291 125.323 382.449 125.217 382.583C125.11 382.718 124.977 382.826 124.827 382.899C124.677 382.973 124.513 383.01 124.347 383.009C121.403 383.009 117.14 382.774 113.43 382.774C109.096 382.774 105.366 383.019 100.266 383.019C97.2417 383.019 96.4152 379.737 97.7054 379.439C103.592 378.086 108.38 377.936 113.521 374.644C114.063 374.263 114.695 374.049 115.345 374.026Z" fill="#263238"/>
<path d="M117.291 124.579L107.07 121.116C107.07 121.116 96.5059 146.968 92.9578 148.577C88.1496 150.708 81.4262 157.666 76.6483 161.875C76.4971 163.207 77.0818 166.713 77.8378 167.63C86.4562 165.498 97.2014 160.277 100.719 156.835C108.763 148.982 117.291 124.579 117.291 124.579Z" fill="#FFC3BD"/>
<path d="M119.68 118.633C122.553 125.56 111.011 147.554 111.011 147.554L95.7398 140.094C97.6163 133.389 100.154 126.91 103.31 120.764C108.108 111.888 116.525 111.025 119.68 118.633Z" fill="#407BFF"/>
<path opacity="0.7" d="M119.68 118.633C122.553 125.56 111.011 147.554 111.011 147.554L95.7398 140.094C97.6163 133.389 100.154 126.91 103.31 120.764C108.108 111.888 116.525 111.025 119.68 118.633Z" fill="white"/>
<path opacity="0.2" d="M106.848 130.696C105.367 134.979 104.211 139.379 103.391 143.856L111.011 147.586C111.011 147.586 119.136 132.113 120.083 123.077C115.638 119.944 109.63 122.896 106.848 130.696Z" fill="black"/>
<path d="M77.6866 161.108L68.7758 162.611L71.0841 172.553C74.1997 171.145 77.0927 169.24 79.6622 166.905L77.6866 161.108Z" fill="#FFC3BD"/>
<path d="M61.0646 166.82L64.3104 172.297L71.0842 172.553L68.7758 162.611L61.0646 166.82Z" fill="#FFC3BD"/>
<path opacity="0.2" d="M114.952 356.646L115.114 366.098H122.603L122.442 356.646H114.952Z" fill="black"/>
<path opacity="0.2" d="M164.385 356.646H156.895L158.619 366.098H166.108L164.385 356.646Z" fill="black"/>
<path d="M109.872 114.136C109.872 114.136 100.477 141.341 107.856 185.862H147.904C148.327 179.362 145.202 144.357 151.845 113.732C147.432 112.827 142.967 112.229 138.479 111.941C132.809 111.595 127.124 111.595 121.454 111.941C117.546 112.359 113.674 113.093 109.872 114.136Z" fill="#407BFF"/>
<path opacity="0.7" d="M109.872 114.136C109.872 114.136 100.477 141.341 107.856 185.862H147.904C148.327 179.362 145.202 144.357 151.845 113.732C147.432 112.827 142.967 112.229 138.479 111.941C132.809 111.595 127.124 111.595 121.454 111.941C117.546 112.359 113.674 113.093 109.872 114.136Z" fill="white"/>
<path opacity="0.2" d="M142.975 121.297C142.199 126.338 143.418 138.347 147.632 152.328C147.835 140.391 149.029 128.495 151.2 116.779V116.715C148.599 116.438 143.731 116.566 142.975 121.297Z" fill="black"/>
<path d="M136.655 95.1048C135.445 100.902 134.749 108.073 138.489 111.941C138.489 111.941 136.151 117.813 125.97 117.813C116.666 117.813 121.464 111.941 121.464 111.941C127.603 110.396 127.512 102.415 126.504 97.918L136.655 95.1048Z" fill="#FFC3BD"/>
<path d="M125.486 117.355L123.288 119.933C123.21 120.021 123.155 120.13 123.13 120.248C123.106 120.367 123.111 120.49 123.147 120.605L123.853 122.874C123.892 123.001 123.967 123.112 124.068 123.192C124.169 123.272 124.291 123.318 124.417 123.322L126.786 123.45C126.899 123.456 127.012 123.431 127.113 123.377C127.213 123.322 127.299 123.241 127.361 123.141L128.782 120.935C128.87 120.818 128.917 120.674 128.917 120.525C128.917 120.376 128.87 120.231 128.782 120.114L126.484 117.344C126.424 117.265 126.347 117.201 126.26 117.158C126.174 117.114 126.078 117.092 125.982 117.093C125.886 117.094 125.792 117.118 125.706 117.164C125.62 117.209 125.545 117.274 125.486 117.355Z" fill="#263238"/>
<path d="M126 116.779C127.124 118.78 127.748 121.049 127.814 123.375C127.814 123.375 140.676 118.623 140.243 111.654C140.243 111.654 138.459 110.513 137.33 109.586C137.31 109.597 136.776 114.019 126 116.779Z" fill="white"/>
<path d="M126 116.779C124.786 118.66 123.895 120.752 123.369 122.96C123.369 122.96 117.684 118.825 119.579 111.941C120.65 111.496 121.752 111.139 122.875 110.876C122.875 110.876 121.968 115.287 126 116.779Z" fill="white"/>
<path d="M124.992 122.001C124.629 121.873 120.023 150.431 120.537 155.578C120.738 160.327 121.681 165.007 123.329 169.43C123.329 169.43 125.345 164.166 125.526 155.226C125.526 146.403 125.617 127.158 126.353 122.192L124.992 122.001Z" fill="#263238"/>
<path opacity="0.2" d="M126.504 97.918C127.26 101.05 127.169 104.343 126.242 107.423C127.205 107.285 128.143 106.994 129.024 106.56C132.512 104.844 134.266 102.148 136.13 98.1311C136.292 97.0655 136.473 96.1065 136.685 95.1261L126.504 97.918Z" fill="black"/>
<path d="M117.845 91.6416C118.133 92.5689 118.596 93.4247 119.206 94.1574C119.816 94.89 120.56 95.4842 121.393 95.904C123.611 96.9696 125.163 94.9557 124.911 92.4941C124.69 90.267 123.258 87.0169 120.879 86.9637C120.352 86.9669 119.834 87.1051 119.368 87.3663C118.902 87.6275 118.503 88.0041 118.205 88.4637C117.907 88.9234 117.718 89.4526 117.656 90.006C117.593 90.5594 117.658 91.1206 117.845 91.6416Z" fill="#FFC3BD"/>
<path opacity="0.2" d="M117.845 91.6416C118.133 92.5689 118.596 93.4247 119.206 94.1574C119.816 94.89 120.56 95.4842 121.393 95.904C123.611 96.9696 125.163 94.9557 124.911 92.4941C124.69 90.267 123.258 87.0169 120.879 86.9637C120.352 86.9669 119.834 87.1051 119.368 87.3663C118.902 87.6275 118.503 88.0041 118.205 88.4637C117.907 88.9234 117.718 89.4526 117.656 90.006C117.593 90.5594 117.658 91.1206 117.845 91.6416Z" fill="black"/>
<path d="M141.261 88.0506C139.094 95.6376 138.237 100.198 133.671 103.31C126.877 107.988 118.793 102.425 118.793 94.3482C118.793 87.0808 122.341 75.8921 130.062 74.4428C131.756 74.1126 133.502 74.2549 135.128 74.8557C136.754 75.4564 138.204 76.4949 139.335 77.8686C140.465 79.2424 141.237 80.904 141.575 82.6895C141.913 84.475 141.805 86.3228 141.261 88.0506Z" fill="#FFC3BD"/>
<path d="M137.088 78.62C135.072 81.7422 135.717 84.0119 137.421 90.2137C138.126 92.7818 139.215 95.3393 142.551 91.5564C145.888 87.7735 149.164 80.5807 144.86 79.3659C142.331 78.636 139.7 78.3835 137.088 78.62Z" fill="#263238"/>
<path d="M137.904 80.9856C133.268 80.3889 121.776 79.3659 122.633 73.0362C123.49 66.7066 131.282 68.614 131.282 68.614C131.282 68.614 127.421 70.7452 135.526 72.3969C143.63 74.0486 147.732 79.1208 144.073 81.1561C143.14 81.7638 142.06 82.0712 140.965 82.0409C139.87 82.0107 138.806 81.644 137.904 80.9856Z" fill="#263238"/>
<path d="M142.612 97.2786C141.279 98.7031 139.467 99.5115 137.572 99.5271C135.102 99.5271 134.548 97.0229 135.858 94.913C137.007 93.0056 139.679 90.7039 141.906 91.7162C144.134 92.7285 144.225 95.5204 142.612 97.2786Z" fill="#FFC3BD"/>
<path d="M118.128 94.3589C117.916 98.3123 118.269 103.63 121.152 104.685C124.034 105.74 131.594 105.399 133.993 104.013C137.743 101.882 139.416 92.8138 141.16 91.0982C142.904 89.3826 139.608 88.562 139.608 88.562C139.608 88.562 137.39 94.3589 133.772 94.6253C130.153 94.8917 118.39 89.3612 118.128 94.3589Z" fill="#263238"/>
<path d="M134.185 185.862C134.185 185.862 133.389 195.815 132.381 209.305C131.221 224.597 129.8 244.47 128.953 259.57C128.953 259.655 128.953 259.719 128.953 259.783C128.792 262.649 128.651 265.345 128.53 267.807C127.401 292.475 125.063 364.265 125.063 364.265H112.362C112.362 364.265 105.981 291.005 105.709 265.899C105.457 241.753 107.856 185.862 107.856 185.862H134.185Z" fill="#407BFF"/>
<path d="M126 360.173C126.05 360.173 125.889 364.552 125.889 364.552H111.273L110.769 359.629L126 360.173Z" fill="#263238"/>
<path opacity="0.2" d="M132.381 209.305C131.221 224.597 129.8 244.47 128.953 259.57C128.953 259.655 128.953 259.719 128.953 259.783C125.849 245.44 124.589 227.602 125.032 198.234L132.381 209.305Z" fill="black"/>
<path d="M122.069 185.862C122.069 185.862 129.125 243.063 133.308 265.782C137.844 290.6 155.171 364.318 155.171 364.318H168.89C168.89 364.318 158.064 292.603 155.716 268.03C153.176 241.39 147.914 185.915 147.914 185.915L122.069 185.862Z" fill="#407BFF"/>
<path d="M168.971 360.482C169.032 360.482 169.566 364.531 169.566 364.531H154.446L153.216 359.885L168.971 360.482Z" fill="#263238"/>
<path opacity="0.3" d="M163.558 355.697C163.528 355.695 163.5 355.683 163.478 355.661C163.456 355.64 163.442 355.611 163.437 355.58C163.336 354.845 153.579 290.983 151.472 268.904C149.184 244.939 144.416 191.819 144.416 191.286C144.413 191.251 144.423 191.216 144.444 191.188C144.464 191.16 144.494 191.142 144.527 191.137C144.544 191.134 144.561 191.134 144.577 191.139C144.594 191.143 144.609 191.151 144.622 191.162C144.636 191.173 144.646 191.187 144.654 191.203C144.662 191.219 144.667 191.236 144.668 191.254C144.719 191.787 149.476 244.907 151.724 268.872C153.831 290.941 163.588 354.802 163.689 355.538C163.692 355.574 163.683 355.61 163.662 355.64C163.642 355.669 163.612 355.69 163.578 355.697H163.558Z" fill="white"/>
<path d="M129.871 87.6882C129.73 88.317 129.306 88.7539 128.923 88.6686C128.54 88.5834 128.349 87.9973 128.49 87.3792C128.631 86.7612 129.054 86.3136 129.437 86.3989C129.82 86.4841 130.032 87.0702 129.871 87.6882Z" fill="#263238"/>
<path d="M123.258 86.1751C123.117 86.7931 122.694 87.2407 122.311 87.1448C121.928 87.0489 121.726 86.4841 121.867 85.8554C122.008 85.2267 122.432 84.7898 122.815 84.8751C123.198 84.9603 123.389 85.5464 123.258 86.1751Z" fill="#263238"/>
<path d="M125.284 86.9637C124.148 88.7222 122.792 90.3101 121.252 91.6843C121.586 92.0812 121.998 92.3951 122.46 92.6033C122.922 92.8115 123.422 92.9089 123.924 92.8884L125.284 86.9637Z" fill="#ED847E"/>
<path d="M125.274 97.1721C125.251 97.1671 125.23 97.1573 125.211 97.1432C125.192 97.1291 125.175 97.111 125.163 97.09C125.151 97.0691 125.143 97.0457 125.139 97.0214C125.136 96.997 125.137 96.9721 125.143 96.9483C125.149 96.9238 125.159 96.9007 125.174 96.8804C125.188 96.8602 125.206 96.8431 125.227 96.8302C125.247 96.8174 125.27 96.8089 125.294 96.8054C125.318 96.8019 125.342 96.8034 125.365 96.8098C126.093 97.0123 126.855 97.033 127.591 96.8703C128.328 96.7075 129.019 96.3658 129.609 95.8721C129.642 95.8376 129.688 95.8183 129.735 95.8183C129.782 95.8183 129.827 95.8376 129.861 95.8721C129.891 95.909 129.908 95.9563 129.908 96.0053C129.908 96.0542 129.891 96.1016 129.861 96.1385C129.23 96.6852 128.484 97.0644 127.686 97.2442C126.888 97.424 126.061 97.3993 125.274 97.1721Z" fill="#FFC3BD"/>
<path d="M132.381 85.8661C132.327 85.8573 132.277 85.8341 132.234 85.7986C132.192 85.7631 132.159 85.7166 132.139 85.6636C131.974 85.2296 131.712 84.8446 131.374 84.542C131.037 84.2393 130.635 84.0281 130.203 83.9267C130.158 83.919 130.115 83.9018 130.076 83.876C130.037 83.8502 130.003 83.8165 129.977 83.7767C129.951 83.737 129.932 83.692 129.922 83.6446C129.913 83.5971 129.912 83.5481 129.921 83.5004C129.936 83.4023 129.986 83.3142 130.062 83.2545C130.137 83.1949 130.231 83.1685 130.324 83.1808C130.868 83.2951 131.377 83.5494 131.806 83.9211C132.235 84.2928 132.571 84.7705 132.784 85.312C132.821 85.4039 132.824 85.5079 132.79 85.6015C132.756 85.6951 132.689 85.7709 132.602 85.8128C132.536 85.8567 132.458 85.8755 132.381 85.8661Z" fill="#263238"/>
<path d="M120.839 82.9783C120.789 82.9619 120.744 82.9326 120.708 82.893C120.643 82.8233 120.607 82.7296 120.607 82.632C120.607 82.5344 120.643 82.4406 120.708 82.3709C121.077 81.9143 121.544 81.5572 122.07 81.3293C122.596 81.1014 123.166 81.0091 123.732 81.0602C123.778 81.0666 123.823 81.0829 123.863 81.1081C123.903 81.1333 123.938 81.1669 123.965 81.2068C123.992 81.2467 124.012 81.2921 124.022 81.3402C124.032 81.3882 124.033 81.438 124.024 81.4865C124.007 81.5854 123.955 81.6737 123.878 81.7331C123.801 81.7926 123.705 81.8187 123.611 81.8061C123.163 81.7725 122.714 81.8515 122.3 82.0367C121.887 82.222 121.521 82.5081 121.232 82.8717C121.185 82.9301 121.122 82.9717 121.052 82.9908C120.981 83.0098 120.907 83.0055 120.839 82.9783Z" fill="#263238"/>
<path d="M145.313 126.806L155.716 123.226C155.716 123.226 165.292 149.014 168.82 150.516C173.648 152.551 183.456 157.975 189.554 159.275C190.25 160.341 191.187 163.708 190.895 164.891C182.156 167.289 164.364 162.227 160.857 158.902C152.893 151.315 145.313 126.806 145.313 126.806Z" fill="#FFC3BD"/>
<path d="M151.855 113.732C158.911 114.797 166.431 140.776 166.431 140.776L151.311 149.664C151.311 149.664 145.041 137.313 142.027 128.149C138.892 118.548 144.285 112.559 151.855 113.732Z" fill="#407BFF"/>
<path opacity="0.7" d="M151.855 113.732C158.911 114.797 166.431 140.776 166.431 140.776L151.311 149.664C151.311 149.664 145.041 137.313 142.027 128.149C138.892 118.548 144.285 112.559 151.855 113.732Z" fill="white"/>
<path d="M157.248 375.432C156.739 375.477 156.231 375.338 155.807 375.038C155.677 374.913 155.577 374.757 155.518 374.582C155.458 374.408 155.44 374.22 155.464 374.036C155.468 373.927 155.5 373.82 155.557 373.728C155.614 373.636 155.693 373.562 155.786 373.514C156.613 373.067 159.002 374.633 159.274 374.814C159.301 374.837 159.322 374.866 159.334 374.9C159.347 374.934 159.35 374.97 159.345 375.006C159.338 375.041 159.323 375.074 159.299 375.101C159.276 375.127 159.246 375.146 159.214 375.155C158.57 375.321 157.911 375.414 157.248 375.432ZM156.169 373.802C156.093 373.784 156.014 373.784 155.938 373.802C155.9 373.825 155.87 373.857 155.849 373.897C155.827 373.936 155.816 373.98 155.817 374.026C155.798 374.151 155.81 374.279 155.85 374.398C155.891 374.517 155.959 374.624 156.048 374.708C156.883 375.109 157.831 375.159 158.7 374.846C157.921 374.32 157.05 373.965 156.139 373.802H156.169Z" fill="#407BFF"/>
<path d="M159.133 375.155C159.107 375.164 159.079 375.164 159.052 375.155C158.286 374.708 156.835 373.024 157.036 372.097C157.068 371.958 157.143 371.834 157.249 371.745C157.355 371.656 157.486 371.608 157.621 371.607C157.754 371.586 157.89 371.597 158.018 371.637C158.147 371.678 158.266 371.747 158.367 371.841C159.224 372.598 159.375 374.878 159.375 374.974C159.381 375.008 159.376 375.043 159.361 375.073C159.347 375.104 159.323 375.129 159.294 375.145C159.27 375.16 159.243 375.169 159.215 375.171C159.187 375.173 159.159 375.168 159.133 375.155ZM157.702 371.958H157.621C157.389 371.958 157.369 372.097 157.359 372.14C157.248 372.662 158.175 373.972 158.931 374.59C158.898 373.694 158.61 372.829 158.105 372.108C157.993 372.006 157.85 371.949 157.702 371.948V371.958Z" fill="#407BFF"/>
<path d="M112.19 375.432C111.555 375.493 110.919 375.324 110.386 374.953C110.269 374.837 110.179 374.694 110.125 374.534C110.071 374.375 110.053 374.204 110.074 374.036C110.081 373.933 110.113 373.833 110.165 373.746C110.218 373.658 110.29 373.586 110.376 373.535C111.303 373.003 114.277 374.601 114.61 374.804C114.642 374.821 114.668 374.849 114.685 374.884C114.701 374.918 114.706 374.957 114.7 374.995C114.695 375.034 114.679 375.07 114.653 375.099C114.628 375.127 114.595 375.147 114.559 375.155C113.779 375.321 112.986 375.414 112.19 375.432ZM110.88 373.802C110.766 373.796 110.652 373.818 110.547 373.866C110.512 373.886 110.483 373.915 110.462 373.95C110.441 373.986 110.428 374.026 110.426 374.068C110.411 374.179 110.421 374.292 110.456 374.398C110.492 374.504 110.55 374.599 110.628 374.676C111.082 375.102 112.311 375.177 113.975 374.889C113.009 374.343 111.963 373.975 110.88 373.802Z" fill="#407BFF"/>
<path d="M114.519 375.155H114.448C113.551 374.718 111.807 373.024 111.959 372.118C111.959 371.905 112.15 371.639 112.634 371.596C112.814 371.567 112.998 371.58 113.172 371.635C113.347 371.69 113.507 371.786 113.642 371.916C114.569 372.736 114.731 374.868 114.731 374.963C114.735 374.997 114.729 375.031 114.715 375.062C114.701 375.092 114.678 375.117 114.65 375.134C114.631 375.147 114.609 375.155 114.586 375.159C114.564 375.162 114.541 375.161 114.519 375.155ZM112.765 371.958H112.664C112.342 371.958 112.321 372.118 112.311 372.161C112.211 372.704 113.4 374.047 114.327 374.633C114.269 373.737 113.945 372.883 113.4 372.193C113.225 372.031 112.998 371.943 112.765 371.948V371.958Z" fill="#407BFF"/>
<path d="M190.24 165.019L197.366 165.381L193.586 157.165C193.586 157.165 187.337 157.069 186.319 162.142L190.24 165.019Z" fill="#FFC3BD"/>
<path d="M203.142 161.406L199.362 154.15L193.586 157.165L197.366 165.381L203.142 161.406Z" fill="#FFC3BD"/>
<path d="M210.591 100.475C209.876 94.9556 195.925 90.6932 189.423 97.0016C180.654 105.473 182.055 132.028 182.055 146.413C195.038 143.036 214.775 143.845 218.222 145.838C218.958 139.221 218.786 102.095 210.591 100.475Z" fill="#263238"/>
<path d="M183.698 151.901C183.557 154.416 183.295 156.707 183.002 159.083C182.71 161.46 182.317 163.783 181.884 166.127C181.012 170.831 179.816 175.461 178.305 179.98C177.922 181.12 177.468 182.25 177.055 183.379C176.642 184.509 176.148 185.606 175.573 186.768C174.429 188.999 173.079 191.105 171.541 193.055C168.625 196.77 165.287 200.092 161.603 202.944L158.841 199.747C161.475 196.291 163.922 192.68 166.169 188.931C167.22 187.169 168.134 185.32 168.9 183.4C169.273 182.484 169.626 181.418 169.999 180.427C170.372 179.436 170.654 178.371 171.007 177.337C172.201 173.105 173.164 168.803 173.89 164.454C174.243 162.259 174.555 160.053 174.848 157.837C175.14 155.62 175.372 153.361 175.543 151.283L183.698 151.901Z" fill="#FFB573"/>
<path d="M178.608 141.576C175.775 142.343 174.182 162.152 174.182 162.152L181.712 166.948C181.712 166.948 186.268 152.306 185.573 145.987C185.069 141.394 180.745 141 178.608 141.576Z" fill="#FFB573"/>
<path d="M158.256 199.821L151.775 204.968L159.728 206.897C159.728 206.897 163.155 202.837 162.016 199.523L158.256 199.821Z" fill="#FFB573"/>
<path d="M150.051 211.852L156.794 213.088L159.758 206.897L151.805 204.968L150.051 211.852Z" fill="#FFB573"/>
<path d="M193.748 374.388H187.276L183.285 343.24H194.302L193.748 374.388Z" fill="#FFB573"/>
<path opacity="0.2" d="M194.01 359.374H185.351L183.285 343.24H194.302L194.01 359.374Z" fill="black"/>
<path d="M243.855 363.157L237.606 364.862L224.925 336.474L235.68 333.256L243.855 363.157Z" fill="#FFB573"/>
<path opacity="0.2" d="M240.005 349.059L231.457 351.094L224.925 336.474L235.68 333.256L240.005 349.059Z" fill="black"/>
<path d="M236.104 363.7L244.41 359.981C244.55 359.911 244.71 359.9 244.857 359.949C245.005 359.999 245.129 360.105 245.206 360.247L248.946 366.758C249.034 366.926 249.087 367.111 249.103 367.301C249.119 367.492 249.097 367.684 249.038 367.865C248.979 368.045 248.884 368.211 248.761 368.351C248.637 368.491 248.487 368.602 248.321 368.676C245.408 369.923 243.936 370.371 240.257 372.012C238.019 373.024 234.834 374.74 231.729 376.136C228.625 377.532 227.163 374.356 228.342 373.482C233.594 369.571 233.785 367.344 235.035 364.734C235.269 364.27 235.646 363.905 236.104 363.7Z" fill="#263238"/>
<path d="M186.42 373.408H195.431C195.588 373.406 195.739 373.465 195.858 373.572C195.977 373.68 196.054 373.83 196.076 373.994L197.084 381.528C197.102 381.718 197.083 381.911 197.026 382.094C196.97 382.276 196.878 382.444 196.756 382.586C196.635 382.729 196.486 382.843 196.321 382.921C196.155 382.999 195.975 383.04 195.794 383.041C192.649 382.977 191.137 382.785 187.176 382.785C184.736 382.785 179.686 383.051 176.319 383.051C172.953 383.051 172.771 379.535 174.172 379.215C180.462 377.787 182.942 375.816 185.059 373.887C185.444 373.562 185.926 373.392 186.42 373.408Z" fill="#263238"/>
<path d="M178.114 141.565C178.114 141.565 174.283 142.982 181.944 192.767H214.533C213.988 178.744 213.968 170.091 220.308 141.32C215.746 140.32 211.12 139.675 206.469 139.391C201.542 139.018 196.597 139.018 191.671 139.391C185.321 139.999 178.114 141.565 178.114 141.565Z" fill="#407BFF"/>
<path d="M202.114 159.147C202.114 159.147 202.044 159.147 202.033 159.083C200.017 155.396 194.897 152.498 194.846 152.466C194.831 152.458 194.818 152.447 194.807 152.434C194.796 152.42 194.788 152.404 194.783 152.387C194.779 152.37 194.777 152.352 194.78 152.335C194.782 152.317 194.787 152.3 194.796 152.285C194.82 152.263 194.85 152.251 194.882 152.251C194.913 152.251 194.944 152.263 194.967 152.285C194.967 152.285 200.007 155.183 202.165 158.86C204.301 156.878 211.156 147.905 210.329 140.19C210.328 140.174 210.33 140.157 210.335 140.141C210.339 140.124 210.347 140.11 210.357 140.097C210.368 140.084 210.38 140.073 210.395 140.066C210.409 140.058 210.424 140.053 210.44 140.052C210.456 140.05 210.472 140.052 210.487 140.057C210.503 140.062 210.517 140.071 210.529 140.082C210.541 140.093 210.551 140.106 210.558 140.121C210.566 140.136 210.57 140.152 210.571 140.169C211.418 148.129 204.221 157.389 202.205 159.169C202.189 159.172 202.173 159.172 202.157 159.169C202.142 159.165 202.127 159.158 202.114 159.147Z" fill="white"/>
<path d="M185.21 157.709C185.184 157.72 185.155 157.72 185.129 157.709C184.377 156.805 183.984 155.629 184.031 154.427C183.758 150.25 185.381 143.334 187.952 140.35C187.976 140.325 188.009 140.312 188.042 140.312C188.076 140.312 188.109 140.325 188.133 140.35C188.144 140.362 188.153 140.376 188.159 140.392C188.166 140.407 188.169 140.424 188.169 140.441C188.169 140.458 188.166 140.474 188.159 140.49C188.153 140.505 188.144 140.519 188.133 140.531C185.603 143.483 184.01 150.292 184.273 154.384C184.245 155.459 184.565 156.512 185.18 157.368C186.853 154.97 191.53 152.04 191.732 151.944C191.746 151.929 191.764 151.918 191.783 151.912C191.802 151.905 191.823 151.903 191.843 151.907C191.863 151.91 191.882 151.918 191.898 151.93C191.915 151.942 191.928 151.958 191.938 151.977C191.948 151.996 191.953 152.017 191.954 152.038C191.955 152.059 191.951 152.081 191.942 152.1C191.934 152.12 191.922 152.137 191.906 152.15C191.891 152.164 191.872 152.174 191.853 152.178C191.802 152.178 186.813 155.269 185.301 157.645C185.279 157.677 185.247 157.7 185.21 157.709Z" fill="white"/>
<path d="M205.007 121.777C204.07 126.806 203.142 136.035 206.469 139.391C206.469 139.391 208.313 151.23 193.123 151.23C180.573 151.23 191.671 139.391 191.671 139.391C196.983 138.049 196.842 133.882 195.925 129.971L205.007 121.777Z" fill="#FFB573"/>
<path opacity="0.2" d="M201.298 125.123L195.925 130.003C196.153 130.911 196.304 131.838 196.379 132.774C198.395 132.465 201.197 130.11 201.419 127.872C201.545 126.956 201.504 126.023 201.298 125.123Z" fill="black"/>
<path d="M210.027 112.538C208.162 120.722 207.537 124.26 202.87 127.734C195.814 133.008 186.742 128.799 186.268 120.189C185.835 112.442 188.96 100.358 197.175 98.4934C198.984 98.0757 200.864 98.1537 202.637 98.72C204.41 99.2863 206.016 100.322 207.304 101.729C208.591 103.136 209.517 104.868 209.994 106.76C210.47 108.651 210.482 110.64 210.027 112.538Z" fill="#FFB573"/>
<path d="M203.969 102.98C204.866 110.972 205.229 119.028 210.591 117.067C215.954 115.106 211.116 102.98 211.116 102.98H203.969Z" fill="#263238"/>
<path d="M186.561 105.58C194.254 103.041 202.54 103.391 210.017 106.571C209.009 102.671 208.394 99.5271 203.848 98.0459C199.302 96.5647 188.839 98.3016 186.561 105.58Z" fill="#263238"/>
<path d="M181.944 192.767C181.944 192.767 175.614 258.11 176.138 283.982C176.682 310.889 182.458 354.206 182.458 354.206L195.562 353.769C195.562 353.769 195.149 312.466 196.106 286.039C197.114 257.268 205.813 192.767 205.813 192.767H181.944Z" fill="#263238"/>
<path d="M196.943 356.177H181.168L180.009 351.882L197.679 351.36L196.943 356.177Z" fill="#407BFF"/>
<path opacity="0.2" d="M196.006 209.017C187.992 226.067 194.393 257.097 197.225 268.691C198.677 251.332 201.126 230.127 203.031 214.548C201.822 205.661 199.695 201.175 196.006 209.017Z" fill="black"/>
<path d="M190.512 192.767C190.512 192.767 197.891 260.699 203.465 282.512C210.087 308.406 227.939 346.949 227.939 346.949L240.126 343.24C240.126 343.24 229.743 297.91 224.683 284.27C213.877 255.158 223.131 211.809 214.492 192.767H190.512Z" fill="#263238"/>
<path d="M242.374 344.903L227.828 349.165L225.207 345.222L241.345 339.532L242.374 344.903Z" fill="#407BFF"/>
<path d="M196.953 112.709C196.832 113.38 196.409 113.859 195.996 113.774C195.582 113.689 195.33 113.081 195.441 112.41C195.552 111.739 195.985 111.259 196.449 111.345C196.913 111.43 197.064 112.027 196.953 112.709Z" fill="#263238"/>
<path d="M189.746 111.355C189.635 112.027 189.202 112.517 188.738 112.421C188.274 112.325 188.073 111.739 188.184 111.068C188.294 110.396 188.728 109.906 189.141 110.002C189.554 110.098 189.857 110.684 189.746 111.355Z" fill="#263238"/>
<path d="M189.373 110.066L187.921 109.309C187.921 109.309 188.496 110.727 189.373 110.066Z" fill="#263238"/>
<path d="M191.792 112.794C190.955 114.226 189.938 115.53 188.768 116.673C189.053 116.978 189.397 117.214 189.776 117.364C190.156 117.515 190.561 117.577 190.966 117.546L191.792 112.794Z" fill="#ED893E"/>
<path d="M194.363 120.722C193.997 120.721 193.633 120.685 193.274 120.615C193.249 120.612 193.225 120.602 193.203 120.588C193.182 120.574 193.164 120.555 193.149 120.533C193.135 120.511 193.125 120.486 193.121 120.46C193.116 120.434 193.117 120.407 193.123 120.381C193.133 120.329 193.161 120.283 193.203 120.253C193.244 120.223 193.295 120.212 193.345 120.221C194.134 120.385 194.949 120.352 195.724 120.124C196.499 119.897 197.213 119.481 197.81 118.91C197.826 118.886 197.846 118.866 197.87 118.851C197.894 118.836 197.921 118.826 197.948 118.823C197.976 118.82 198.004 118.824 198.03 118.834C198.057 118.843 198.081 118.859 198.101 118.879C198.121 118.899 198.136 118.924 198.146 118.952C198.156 118.979 198.161 119.008 198.159 119.038C198.157 119.067 198.149 119.096 198.136 119.122C198.123 119.147 198.104 119.17 198.082 119.187C197.078 120.19 195.744 120.74 194.363 120.722Z" fill="#263238"/>
<path d="M210.36 118.708C209.765 120.211 208.63 121.403 207.205 122.022C205.309 122.832 204.181 121.095 204.483 119.081C204.785 117.269 206.136 114.669 208.132 114.723C208.567 114.742 208.99 114.876 209.363 115.112C209.736 115.349 210.048 115.68 210.269 116.076C210.49 116.472 210.615 116.92 210.63 117.38C210.646 117.839 210.553 118.296 210.36 118.708Z" fill="#FFB573"/>
<path d="M199.745 108.201C199.693 108.201 199.64 108.189 199.592 108.167C199.543 108.145 199.5 108.113 199.463 108.073C199.146 107.694 198.749 107.4 198.304 107.215C197.859 107.029 197.379 106.958 196.903 107.008C196.803 107.023 196.701 106.998 196.618 106.936C196.536 106.875 196.479 106.782 196.459 106.677C196.451 106.625 196.452 106.572 196.463 106.521C196.474 106.47 196.495 106.421 196.524 106.378C196.553 106.336 196.59 106.3 196.633 106.272C196.675 106.245 196.722 106.227 196.772 106.219C197.37 106.14 197.978 106.215 198.543 106.437C199.108 106.66 199.614 107.024 200.017 107.498C200.087 107.573 200.126 107.675 200.126 107.78C200.126 107.886 200.087 107.987 200.017 108.063C199.947 108.144 199.85 108.194 199.745 108.201Z" fill="#263238"/>
<path d="M187.952 107.167C187.903 107.168 187.854 107.157 187.809 107.137C187.764 107.117 187.724 107.087 187.69 107.05C187.62 106.975 187.581 106.873 187.581 106.768C187.581 106.662 187.62 106.561 187.69 106.485C188.095 106.012 188.603 105.649 189.17 105.428C189.737 105.207 190.346 105.135 190.945 105.217C190.996 105.225 191.044 105.243 191.086 105.271C191.129 105.3 191.166 105.337 191.195 105.381C191.223 105.425 191.243 105.475 191.252 105.528C191.261 105.58 191.26 105.634 191.248 105.686C191.239 105.738 191.221 105.788 191.194 105.833C191.167 105.877 191.132 105.916 191.09 105.946C191.049 105.975 191.002 105.996 190.953 106.007C190.904 106.017 190.853 106.017 190.804 106.006C190.328 105.957 189.848 106.028 189.403 106.213C188.958 106.398 188.561 106.692 188.244 107.072C188.204 107.108 188.158 107.136 188.108 107.153C188.057 107.169 188.004 107.174 187.952 107.167Z" fill="#263238"/>
<path d="M223.836 150.388C225.692 155.161 227.277 160.047 228.584 165.019C230.001 170.054 230.98 175.215 231.507 180.438C231.588 181.099 231.618 181.791 231.638 182.473V183.539V183.795C231.638 183.901 231.638 183.912 231.638 184.125C231.639 184.446 231.619 184.766 231.578 185.084C231.305 186.92 230.613 188.657 229.562 190.146C228.008 192.391 226.208 194.433 224.199 196.23C220.481 199.609 216.472 202.613 212.224 205.203L209.866 201.707C213.283 198.393 216.74 194.994 219.744 191.446C221.19 189.808 222.48 188.023 223.595 186.118C223.937 185.565 224.161 184.939 224.25 184.285V183.923L224.159 183.081C224.109 182.516 224.058 181.962 223.957 181.386C223.203 176.666 222.132 172.008 220.752 167.448C219.381 162.834 217.829 158.135 216.206 153.67L223.836 150.388Z" fill="#FFB573"/>
<path d="M220.278 141.32C223.474 142.695 227.475 161.193 227.475 161.193L220.681 167.086C220.681 167.086 214.281 153.297 213.998 146.936C213.777 142.162 217.456 140.094 220.278 141.32Z" fill="#FFB573"/>
<path d="M232.445 366.375C232.298 366.296 232.17 366.183 232.071 366.045C231.971 365.906 231.903 365.746 231.87 365.575C231.834 365.461 231.828 365.337 231.853 365.219C231.878 365.101 231.933 364.992 232.011 364.904C232.707 364.105 235.56 364.627 235.892 364.691C235.928 364.698 235.962 364.716 235.988 364.742C236.015 364.769 236.034 364.803 236.043 364.84C236.049 364.879 236.044 364.918 236.03 364.953C236.015 364.989 235.992 365.02 235.963 365.043C235.106 365.714 233.523 366.78 232.556 366.428L232.445 366.375ZM235.368 365C234.219 364.83 232.656 364.755 232.294 365.171C232.267 365.215 232.252 365.267 232.252 365.32C232.252 365.373 232.267 365.424 232.294 365.469C232.312 365.598 232.362 365.72 232.44 365.821C232.518 365.923 232.621 366 232.737 366.044C233.201 366.236 234.189 365.853 235.368 365Z" fill="#407BFF"/>
<path d="M234.562 364.627C233.725 364.201 232.868 363.562 232.747 362.943C232.718 362.787 232.74 362.625 232.81 362.484C232.88 362.342 232.993 362.23 233.13 362.166C233.256 362.089 233.395 362.041 233.54 362.026C233.684 362.012 233.83 362.03 233.967 362.08C235.076 362.464 235.983 364.712 235.983 364.808C235.998 364.838 236.006 364.871 236.006 364.904C236.006 364.938 235.998 364.971 235.983 365C235.965 365.03 235.94 365.055 235.909 365.07C235.879 365.085 235.845 365.09 235.812 365.085C235.376 364.999 234.955 364.844 234.562 364.627ZM233.967 362.496L233.846 362.443C233.76 362.411 233.669 362.4 233.578 362.409C233.488 362.418 233.4 362.448 233.322 362.496C233.11 362.624 233.1 362.752 233.12 362.848C233.241 363.434 234.582 364.318 235.519 364.595C235.183 363.768 234.648 363.048 233.967 362.507V362.496Z" fill="#407BFF"/>
<path d="M183.456 374.889C182.77 374.954 182.084 374.77 181.511 374.367C181.38 374.249 181.28 374.098 181.22 373.929C181.16 373.759 181.142 373.576 181.168 373.397C181.174 373.285 181.206 373.176 181.263 373.081C181.319 372.986 181.397 372.908 181.49 372.853C182.498 372.289 185.674 374.015 186.026 374.217C186.064 374.232 186.095 374.261 186.114 374.298C186.132 374.336 186.137 374.379 186.127 374.42C186.122 374.461 186.104 374.5 186.077 374.531C186.05 374.561 186.015 374.582 185.976 374.59C185.146 374.771 184.303 374.871 183.456 374.889ZM182.025 373.141C181.904 373.135 181.784 373.157 181.672 373.205C181.634 373.227 181.601 373.26 181.578 373.299C181.555 373.338 181.542 373.383 181.541 373.429C181.525 373.547 181.538 373.666 181.576 373.778C181.615 373.889 181.679 373.989 181.763 374.068C182.246 374.537 183.567 374.612 185.351 374.303C184.296 373.715 183.154 373.322 181.974 373.141H182.025Z" fill="#407BFF"/>
<path d="M185.895 374.59H185.815C184.807 374.132 182.962 372.299 183.113 371.394C183.113 371.159 183.305 370.882 183.829 370.829C184.01 370.812 184.192 370.834 184.365 370.892C184.538 370.951 184.699 371.045 184.837 371.17C185.845 372.054 186.037 374.367 186.047 374.441C186.05 374.469 186.047 374.497 186.038 374.524C186.03 374.55 186.016 374.575 185.998 374.595C185.98 374.615 185.957 374.631 185.933 374.641C185.908 374.652 185.882 374.656 185.855 374.654L185.895 374.59ZM183.98 371.159H183.869C183.517 371.159 183.496 371.34 183.486 371.394C183.406 371.969 184.686 373.408 185.664 374.036C185.59 373.074 185.238 372.158 184.656 371.415C184.468 371.245 184.227 371.154 183.98 371.159Z" fill="#407BFF"/>
<path d="M215.027 190.742L215.853 193.822C215.974 194.067 215.702 194.312 215.329 194.312H181.783C181.49 194.312 181.249 194.152 181.228 193.961L180.936 190.881C180.936 190.668 181.168 190.487 181.49 190.487H214.492C214.595 190.477 214.698 190.495 214.791 190.54C214.885 190.585 214.966 190.655 215.027 190.742Z" fill="#407BFF"/>
<path opacity="0.8" d="M215.027 190.742L215.853 193.822C215.974 194.067 215.702 194.312 215.329 194.312H181.783C181.49 194.312 181.249 194.152 181.228 193.961L180.936 190.881C180.936 190.668 181.168 190.487 181.49 190.487H214.492C214.595 190.477 214.698 190.495 214.791 190.54C214.885 190.585 214.966 190.655 215.027 190.742Z" fill="#263238"/>
<path d="M210.591 194.643H211.478C211.65 194.643 211.781 194.547 211.771 194.429L211.357 190.423C211.357 190.306 211.196 190.21 211.015 190.21H210.128C209.956 190.21 209.825 190.306 209.835 190.423L210.249 194.429C210.259 194.547 210.41 194.643 210.591 194.643Z" fill="#407BFF"/>
<path d="M184.262 194.643H185.149C185.331 194.643 185.462 194.547 185.452 194.429L185.039 190.423C185.039 190.306 184.867 190.21 184.696 190.21H183.809C183.627 190.21 183.496 190.306 183.506 190.423L183.92 194.429C183.94 194.547 184.091 194.643 184.262 194.643Z" fill="#407BFF"/>
<path d="M197.427 194.643H198.314C198.485 194.643 198.626 194.547 198.606 194.429L198.193 190.423C198.193 190.306 198.032 190.21 197.85 190.21H196.973C196.792 190.21 196.661 190.306 196.671 190.423L197.084 194.429C197.094 194.547 197.256 194.643 197.427 194.643Z" fill="#407BFF"/>
<path d="M210.823 200.94L202.185 201.729L207.96 207.824C207.96 207.824 212.91 206.3 213.595 202.858L210.823 200.94Z" fill="#FFB573"/>
<path d="M197.245 206.588L202.336 211.415L209.18 207.344L202.185 201.729L197.245 206.588Z" fill="#FFB573"/>
<path d="M196.56 111.419L195.108 110.663C195.108 110.663 195.703 112.069 196.56 111.419Z" fill="#263238"/>
<path d="M307.064 112.257C307.064 112.95 307.366 113.546 307.799 113.589C308.233 113.632 308.606 113.109 308.626 112.417C308.646 111.724 308.324 111.127 307.89 111.085C307.457 111.042 307.084 111.618 307.064 112.257Z" fill="#263238"/>
<path d="M307.699 111.095L309.301 110.786C309.301 110.786 308.404 112.001 307.699 111.095Z" fill="#263238"/>
<path d="M307.598 112.982C308.13 114.634 308.869 116.204 309.795 117.649C309.438 117.867 309.04 118 308.629 118.039C308.218 118.077 307.804 118.021 307.416 117.873L307.598 112.982Z" fill="#A02724"/>
<path d="M308.122 107.728C308.059 107.744 307.994 107.744 307.931 107.728C307.481 107.509 306.989 107.404 306.494 107.421C305.998 107.437 305.514 107.575 305.078 107.824C304.991 107.88 304.886 107.899 304.786 107.875C304.687 107.851 304.6 107.787 304.544 107.696C304.514 107.653 304.492 107.603 304.481 107.551C304.47 107.498 304.469 107.444 304.479 107.391C304.488 107.338 304.508 107.287 304.536 107.243C304.565 107.198 304.602 107.16 304.644 107.131C305.186 106.811 305.791 106.63 306.411 106.602C307.03 106.574 307.648 106.701 308.213 106.972C308.307 107.014 308.382 107.093 308.423 107.192C308.464 107.291 308.468 107.402 308.435 107.504C308.406 107.568 308.362 107.622 308.307 107.661C308.252 107.7 308.188 107.724 308.122 107.728Z" fill="#263238"/>
<path d="M284.948 108.048C285.14 116.573 285.049 120.228 288.98 125.023C294.927 132.226 304.907 130.756 307.124 122.465C309.14 115.006 308.505 102.219 300.653 98.0418C292.8 93.8647 284.757 99.491 284.948 108.048Z" fill="#B55B52"/>
<path d="M273.255 150.299C271.945 154.135 270.655 158.238 269.465 162.255C268.276 166.272 267.187 170.364 266.23 174.445L265.927 175.777C265.89 175.857 265.872 175.945 265.877 176.033C265.86 176.157 265.86 176.282 265.877 176.406C265.903 177.129 266.018 177.846 266.22 178.537C266.764 180.346 267.473 182.095 268.336 183.759C270.239 187.408 272.346 190.935 274.646 194.319L271.391 197.611C268.067 194.685 265.076 191.359 262.48 187.701C261.071 185.723 259.887 183.578 258.952 181.308C258.405 179.975 258.032 178.57 257.843 177.131C257.784 176.714 257.757 176.294 257.762 175.873C257.743 175.418 257.764 174.961 257.823 174.509C257.873 173.955 257.924 173.763 257.964 173.444L258.085 172.613C258.768 168.219 259.667 163.865 260.776 159.57C261.895 155.231 263.241 150.962 264.808 146.782L273.255 150.299Z" fill="#B55B52"/>
<path d="M267.953 137.81C262.913 140.431 260.03 155.105 260.03 155.105L272.903 161.786C272.903 161.786 280.735 150.917 278.356 142.413C277.156 138.172 272.903 135.231 267.953 137.81Z" fill="#263238"/>
<path d="M273.9 193.093L279.031 200.989L272.489 200.755C272.489 200.755 269.213 197.292 271.139 194.361L273.9 193.093Z" fill="#B55B52"/>
<path d="M278.255 204.378L274.263 206.658L272.489 200.755L279.031 200.989L278.255 204.378Z" fill="#B55B52"/>
<path d="M285.966 118.917C287.156 124.042 286.763 132.77 283.497 136.105C283.497 136.105 287.075 141.188 296.147 141.305C306.136 141.433 300.683 136.18 300.683 136.18C295.179 134.752 295.119 130.532 295.895 126.589L285.966 118.917Z" fill="#B55B52"/>
<path d="M281.259 96.9549C276.491 97.2106 273.003 99.3312 276.945 111.937C279.969 121.528 269.546 135.38 279.414 131.661C282.854 132.972 286.557 133.313 290.159 132.652C290.159 132.652 310.148 139.653 307.023 125.311C303.899 110.968 309.664 100.684 305.39 94.8876C301.116 89.0908 282.378 89.6022 281.259 96.9549Z" fill="#263238"/>
<path d="M280.604 137.682C280.107 137.659 279.622 137.52 279.183 137.275C278.744 137.03 278.361 136.685 278.063 136.265C277.187 134.965 278.064 134.347 278.809 133.068C279.757 131.406 277.055 129.189 280.079 128.145C283.103 127.101 295.885 132.823 300.411 131.342C303.586 130.276 304.191 133.036 303.505 134.901C302.387 137.97 305.521 141.113 302.86 141.795C300.572 142.36 285.22 138.023 280.604 137.682Z" fill="#407BFF"/>
<path d="M299.262 373.542L307.457 374.171L309.281 354.319L301.086 353.679L299.262 373.542Z" fill="#B55B52"/>
<path d="M256.613 362.534L264.435 365.731L272.973 348.245L265.151 345.048L256.613 362.534Z" fill="#B55B52"/>
<path d="M266.189 363.696L258.287 358.176C258.158 358.078 257.999 358.033 257.841 358.051C257.683 358.068 257.536 358.147 257.43 358.272L252.712 363.93C252.6 364.087 252.521 364.266 252.478 364.457C252.436 364.647 252.431 364.846 252.466 365.038C252.5 365.231 252.572 365.414 252.677 365.575C252.782 365.737 252.917 365.873 253.075 365.976C255.867 367.852 257.289 368.608 260.766 371.038C262.903 372.53 265.897 374.938 268.83 376.995C271.763 379.051 273.719 376.227 272.651 375.108C267.863 370.068 267.984 367.82 267.086 364.953C266.924 364.442 266.609 364.001 266.189 363.696Z" fill="#263238"/>
<path d="M307.931 372.945H298.738C298.579 372.941 298.425 372.998 298.304 373.107C298.184 373.215 298.105 373.366 298.082 373.531L297.074 381.225C297.056 381.42 297.077 381.617 297.135 381.803C297.193 381.99 297.287 382.161 297.411 382.307C297.536 382.452 297.687 382.568 297.857 382.648C298.026 382.728 298.209 382.77 298.395 382.77C301.6 382.706 303.143 382.514 307.195 382.514C309.674 382.514 314.825 382.781 318.283 382.781C321.74 382.781 321.881 379.19 320.45 378.87C314.019 377.41 311.489 375.396 309.312 373.478C308.926 373.132 308.436 372.943 307.931 372.945Z" fill="#263238"/>
<path opacity="0.2" d="M309.281 354.319L308.273 365.358L300.139 363.93L301.076 353.679L309.281 354.319Z" fill="black"/>
<path opacity="0.2" d="M265.151 345.059L272.973 348.255L269.435 355.48L261.502 352.507L265.151 345.059Z" fill="black"/>
<path d="M277.418 189.598L310.854 190.024C316.428 139.611 312.487 138.769 312.487 138.769C309.859 137.869 307.183 137.136 304.473 136.574L304.009 136.489C301.792 136.094 301.338 136.052 298.415 135.732C293.446 135.455 288.849 135.338 283.235 135.551H282.156C281.148 135.615 280.14 135.689 279.182 135.775C278.527 135.775 277.882 135.903 277.267 135.977L275.171 136.254C271.622 136.755 269.123 137.32 269.123 137.32C276.955 166.613 277.328 175.383 277.418 189.598Z" fill="#263238"/>
<path opacity="0.2" d="M308.918 154.476C309.014 159.649 310.375 164.708 312.87 169.16C313.656 159.356 313.878 152.718 313.827 148.21C311.307 148.381 308.848 149.734 308.918 154.476Z" fill="black"/>
<path d="M302.034 189.907C302.034 189.907 294.816 243.315 291.238 276.583C287.458 311.695 272.187 353.946 272.187 353.946L260.887 349.832C260.887 349.832 268.356 310.768 270.826 277.787C275.866 210.836 267.419 205.071 277.418 189.609L302.034 189.907Z" fill="#407BFF"/>
<path opacity="0.5" d="M302.034 189.907C302.034 189.907 294.816 243.315 291.238 276.583C287.458 311.695 272.187 353.946 272.187 353.946L260.887 349.832C260.887 349.832 268.356 310.768 270.826 277.787C275.866 210.836 267.419 205.071 277.418 189.609L302.034 189.907Z" fill="black"/>
<path opacity="0.2" d="M294.191 206.456C289.363 217.73 291.54 235.994 294.524 248.206C296.359 233.288 298.314 218.082 299.766 206.989C297.961 203.323 296.026 202.194 294.191 206.456Z" fill="black"/>
<path d="M273.386 354.777L259.284 349.63L260.353 345.314L276.683 349.832L273.386 354.777Z" fill="#263238"/>
<path d="M269.717 367.085C269.627 367.128 269.532 367.16 269.435 367.18C268.427 367.34 266.935 365.923 266.149 365.049C266.12 365.022 266.1 364.986 266.091 364.946C266.082 364.906 266.084 364.864 266.099 364.826C266.112 364.786 266.136 364.753 266.169 364.73C266.202 364.706 266.241 364.695 266.28 364.698C266.623 364.698 269.616 364.815 270.191 365.763C270.249 365.869 270.279 365.988 270.279 366.11C270.279 366.231 270.249 366.351 270.191 366.456C270.101 366.714 269.935 366.934 269.717 367.085ZM266.764 365.156C267.852 366.221 268.78 366.861 269.364 366.776C269.48 366.752 269.588 366.696 269.677 366.613C269.765 366.531 269.831 366.425 269.868 366.307C269.894 366.26 269.908 366.206 269.908 366.152C269.908 366.098 269.894 366.045 269.868 365.998C269.566 365.497 267.963 365.23 266.764 365.156Z" fill="#407BFF"/>
<path d="M310.42 190.11C310.42 190.11 322.577 254.046 321.337 280.195C320.037 307.4 310.108 362.63 310.108 362.63L298.264 361.021C298.264 361.021 301.086 307.23 300.814 280.366C300.532 251.083 285.926 189.79 285.926 189.79L310.42 190.11Z" fill="#407BFF"/>
<path opacity="0.5" d="M310.42 190.11C310.42 190.11 322.577 254.046 321.337 280.195C320.037 307.4 310.108 362.63 310.108 362.63L298.264 361.021C298.264 361.021 301.086 307.23 300.814 280.366C300.532 251.083 285.926 189.79 285.926 189.79L310.42 190.11Z" fill="black"/>
<path d="M316.126 141.785C319.02 146.512 321.655 151.411 324.018 156.458C325.218 158.983 326.357 161.552 327.365 164.226C328.444 166.937 329.33 169.73 330.016 172.581L330.278 173.646V173.785V173.998L330.359 174.424C330.359 174.712 330.429 174.989 330.459 175.266C330.532 176.295 330.485 177.329 330.318 178.345C330.023 180.055 329.511 181.715 328.796 183.279C327.538 185.995 325.993 188.551 324.19 190.898C320.8 195.329 316.968 199.359 312.759 202.918L309.644 199.476C312.866 195.421 315.835 191.15 318.535 186.689C321.035 182.427 323.353 177.386 321.962 174.967C321.201 172.562 320.306 170.207 319.281 167.913C318.273 165.548 317.123 163.182 315.934 160.838C314.745 158.493 313.505 156.181 312.245 153.869C310.985 151.556 309.654 149.223 308.394 147.017L316.126 141.785Z" fill="#B55B52"/>
<path d="M312.356 199.178L317.204 204.442L312.114 207.809C312.114 207.809 306.882 203.344 309.745 199.402L312.356 199.178Z" fill="#B55B52"/>
<path d="M316.962 208.566L312.799 213.116L312.114 207.809L317.204 204.453L316.962 208.566Z" fill="#B55B52"/>
<path d="M312.184 138.662C318.293 141.348 323.373 148.956 325.238 153.517L314.987 166.688C314.987 166.688 305.673 151.769 305.673 146.985C305.683 141.977 309.876 137.65 312.184 138.662Z" fill="#263238"/>
<path d="M311.912 363.344L295.714 361.043L295.794 356.823L313.434 357.665L311.912 363.344Z" fill="#263238"/>
<path d="M268.77 364.527C267.99 364.925 267.136 365.132 266.27 365.134C266.236 365.13 266.204 365.117 266.176 365.097C266.148 365.076 266.125 365.049 266.109 365.017C266.091 364.987 266.081 364.952 266.081 364.916C266.081 364.88 266.091 364.845 266.109 364.815C266.159 364.73 267.399 362.684 268.568 362.545C268.721 362.522 268.876 362.533 269.024 362.579C269.172 362.625 269.309 362.704 269.425 362.811C269.554 362.903 269.651 363.038 269.7 363.194C269.749 363.35 269.748 363.519 269.697 363.675C269.491 364.064 269.163 364.366 268.77 364.527ZM266.653 364.719C267.661 364.655 269.143 364.069 269.344 363.515C269.344 363.43 269.395 363.302 269.193 363.12C269.117 363.053 269.028 363.004 268.933 362.974C268.837 362.945 268.737 362.937 268.639 362.95C267.943 363.099 267.076 364.08 266.653 364.719Z" fill="#407BFF"/>
<path d="M311.015 374.459C310.148 374.441 309.284 374.337 308.435 374.149C308.396 374.141 308.36 374.12 308.333 374.09C308.306 374.059 308.289 374.02 308.283 373.979C308.274 373.938 308.278 373.895 308.294 373.856C308.311 373.818 308.339 373.786 308.374 373.766C308.747 373.563 312.013 371.795 313.011 372.381C313.104 372.438 313.183 372.518 313.241 372.615C313.299 372.711 313.334 372.821 313.343 372.935C313.371 373.118 313.354 373.306 313.292 373.48C313.23 373.654 313.126 373.807 312.991 373.926C312.41 374.34 311.712 374.528 311.015 374.459ZM309.08 373.862C310.894 374.171 312.235 374.086 312.729 373.617C312.817 373.537 312.884 373.434 312.923 373.318C312.962 373.202 312.971 373.077 312.95 372.956C312.951 372.912 312.94 372.869 312.919 372.831C312.897 372.793 312.866 372.763 312.829 372.743C312.275 372.423 310.42 373.18 309.08 373.862Z" fill="#407BFF"/>
<path d="M308.475 374.15C308.439 374.16 308.4 374.16 308.364 374.15C308.335 374.128 308.311 374.099 308.295 374.066C308.28 374.032 308.272 373.995 308.273 373.958C308.273 373.798 308.556 370.271 310.39 370.271H310.551C311.086 370.335 311.247 370.612 311.287 370.846C311.459 371.816 309.543 373.691 308.556 374.171L308.475 374.15ZM310.41 370.644C309.231 370.644 308.828 372.7 308.707 373.574C309.715 372.935 311.015 371.443 310.904 370.878C310.904 370.825 310.904 370.686 310.521 370.654L310.41 370.644Z" fill="#407BFF"/>
<path d="M276.824 187.542L275.463 190.653C275.352 190.898 275.644 191.154 276.027 191.154L311.096 191.591C311.398 191.591 311.64 191.442 311.65 191.239L311.811 188.117C311.811 187.904 311.549 187.712 311.227 187.712L277.358 187.286C277.256 187.276 277.153 187.294 277.059 187.339C276.965 187.384 276.884 187.454 276.824 187.542Z" fill="#407BFF"/>
<path d="M281.551 191.538H280.644C280.463 191.538 280.321 191.442 280.331 191.324L280.573 187.254C280.573 187.137 280.735 187.041 280.916 187.051H281.823C282.005 187.051 282.146 187.147 282.136 187.265L281.894 191.324C281.884 191.474 281.733 191.538 281.551 191.538Z" fill="#407BFF"/>
<path opacity="0.5" d="M281.551 191.538H280.644C280.463 191.538 280.321 191.442 280.331 191.324L280.573 187.254C280.573 187.137 280.735 187.041 280.916 187.051H281.823C282.005 187.051 282.146 187.147 282.136 187.265L281.894 191.324C281.884 191.474 281.733 191.538 281.551 191.538Z" fill="black"/>
<path d="M304.473 191.9H303.566C303.384 191.9 303.243 191.804 303.243 191.676L303.485 187.616C303.485 187.499 303.647 187.403 303.828 187.403H304.735C304.917 187.403 305.058 187.499 305.048 187.616L304.806 191.676C304.806 191.804 304.644 191.9 304.473 191.9Z" fill="#407BFF"/>
<path opacity="0.5" d="M304.473 191.9H303.566C303.384 191.9 303.243 191.804 303.243 191.676L303.485 187.616C303.485 187.499 303.647 187.403 303.828 187.403H304.735C304.917 187.403 305.058 187.499 305.048 187.616L304.806 191.676C304.806 191.804 304.644 191.9 304.473 191.9Z" fill="black"/>
<path d="M357.245 372.385L349.715 371.244L350.209 352.532L357.729 353.673L357.245 372.385Z" fill="#FFC3BD"/>
<path d="M410.175 374.857H402.585L400.69 356.251H408.29L410.175 374.857Z" fill="#FFC3BD"/>
<path d="M401.96 373.919H411.264C411.415 373.922 411.56 373.978 411.677 374.079C411.794 374.179 411.875 374.318 411.909 374.473L413.411 381.613C413.446 381.787 413.443 381.968 413.403 382.141C413.363 382.314 413.286 382.475 413.178 382.613C413.07 382.75 412.935 382.86 412.781 382.934C412.628 383.008 412.461 383.044 412.292 383.041C409.268 383.041 407.141 382.796 403.391 382.796C401.073 382.796 394.118 383.051 390.923 383.051C387.727 383.051 387.314 379.716 388.624 379.418C394.481 378.064 398.886 376.221 400.72 374.42C401.062 374.1 401.503 373.922 401.96 373.919Z" fill="#263238"/>
<path d="M349.897 370.339L358.112 371.575C358.26 371.6 358.396 371.677 358.498 371.792C358.6 371.908 358.663 372.056 358.677 372.214L359.211 379.513C359.224 379.69 359.198 379.867 359.137 380.032C359.076 380.197 358.98 380.345 358.857 380.465C358.733 380.585 358.586 380.674 358.426 380.725C358.265 380.776 358.096 380.788 357.931 380.76C354.977 380.259 350.723 379.428 346.994 378.863C342.639 378.203 338.849 377.883 333.739 377.116C330.654 376.647 330.241 373.216 331.582 373.109C337.63 372.64 342.468 373.226 348.002 370.68C348.59 370.378 349.247 370.26 349.897 370.339Z" fill="#263238"/>
<path d="M374.049 128.682C373.656 134.244 373.041 139.658 372.264 145.135C371.881 147.863 371.428 150.591 370.944 153.319C370.702 154.683 370.45 156.046 370.168 157.41L369.734 159.456L369.523 160.522C369.442 160.863 369.321 161.311 369.23 161.705C368.453 164.598 367.441 167.414 366.206 170.123C365.051 172.695 363.824 175.181 362.527 177.582C359.964 182.419 357.147 187.1 354.09 191.606L349.08 188.611L354.725 173.693C355.643 171.21 356.499 168.727 357.296 166.234C358.068 163.945 358.688 161.602 359.15 159.222C359.15 158.945 359.241 158.732 359.292 158.412L359.412 157.421L359.664 155.46L360.128 151.507L360.965 143.547L362.578 127.563L374.049 128.682Z" fill="#FFC3BD"/>
<path d="M367.92 120.413C360.864 122.31 357.588 148.715 357.588 148.715L375.026 151.454C375.026 151.454 376.69 144.346 379.371 134.617C381.024 128.522 376.68 118.037 367.92 120.413Z" fill="#407BFF"/>
<path d="M350.391 187.183L344.222 192.735L352.155 196.795C352.975 195.946 353.617 194.923 354.037 193.794C354.458 192.665 354.647 191.454 354.594 190.242L350.391 187.183Z" fill="#FFC3BD"/>
<path d="M340.825 197.818L347.8 200.663L352.155 196.795L344.222 192.735L340.825 197.818Z" fill="#FFC3BD"/>
<path opacity="0.2" d="M350.219 352.532L349.957 362.187L357.487 363.327L357.739 353.673L350.219 352.532Z" fill="black"/>
<path opacity="0.2" d="M408.29 356.251H400.69L401.668 365.842H409.268L408.29 356.251Z" fill="black"/>
<path d="M410.155 122.299C408.092 131.014 406.646 139.879 405.831 148.822C405.226 155.055 404.914 161.002 404.742 166.393C404.359 179.031 404.803 188.654 404.51 191.915C398.563 191.606 376.145 190.444 363.918 189.783C362.719 126.657 367.628 120.466 367.628 120.466C370.821 119.763 374.053 119.272 377.304 118.996C377.99 118.932 378.685 118.889 379.391 118.857C385.155 118.807 390.917 119.109 396.648 119.763C397.737 119.869 398.835 120.019 399.904 120.178C405.347 121.01 410.155 122.299 410.155 122.299Z" fill="#407BFF"/>
<path d="M375.984 118.942C376.932 123.727 386.528 156.76 405.327 167.864C405.405 167.909 405.472 167.975 405.519 168.056C405.567 168.136 405.594 168.228 405.599 168.322C405.66 169.324 405.68 170.613 405.69 171.37C405.69 171.452 405.674 171.534 405.643 171.609C405.611 171.684 405.565 171.751 405.506 171.806C405.448 171.86 405.379 171.901 405.305 171.925C405.23 171.949 405.152 171.956 405.075 171.945C402.867 171.626 394.551 168.812 382.707 148.715C376.871 138.805 372.829 123.237 372.174 119.944C372.143 119.789 372.17 119.627 372.249 119.492C372.327 119.357 372.452 119.26 372.597 119.219L375.268 118.473C375.345 118.451 375.424 118.446 375.502 118.458C375.581 118.47 375.656 118.499 375.723 118.543C375.79 118.587 375.848 118.645 375.893 118.714C375.938 118.783 375.969 118.86 375.984 118.942Z" fill="#263238"/>
<path d="M377.839 136.898C378.958 139.54 373.615 150.9 380.429 162.472C387.243 174.044 393.18 164.529 400.146 168.77C392.112 159.467 377.839 136.898 377.839 136.898Z" fill="#263238"/>
<path d="M393.533 166.234H393.432C380.974 160.149 378.816 141.469 378.796 141.288C378.792 141.253 378.794 141.217 378.803 141.183C378.812 141.149 378.828 141.117 378.848 141.09C378.869 141.062 378.894 141.039 378.924 141.022C378.953 141.004 378.985 140.994 379.018 140.99C379.051 140.985 379.084 140.988 379.115 140.997C379.147 141.007 379.176 141.023 379.202 141.045C379.227 141.067 379.248 141.094 379.263 141.125C379.279 141.156 379.288 141.189 379.29 141.224C379.29 141.416 381.437 159.797 393.644 165.733C393.699 165.757 393.743 165.801 393.77 165.857C393.797 165.913 393.805 165.977 393.792 166.038C393.779 166.099 393.745 166.153 393.698 166.191C393.651 166.229 393.592 166.247 393.533 166.244V166.234Z" fill="white"/>
<path opacity="0.2" d="M400.176 134.074C400.234 140.65 402.101 147.066 405.549 152.541C405.639 151.315 405.75 150.068 405.871 148.822C406.325 144.133 406.93 139.285 407.756 134.372L400.176 134.074Z" fill="black"/>
<path d="M395.902 99.1008C394.541 104.908 392.949 115.607 396.648 119.731C394.849 121.54 392.702 122.919 390.354 123.772C388.006 124.625 385.511 124.933 383.04 124.675C378.272 124.324 378.192 120.775 379.351 118.878C385.62 117.642 385.681 112.772 384.824 108.158L395.902 99.1008Z" fill="#FFC3BD"/>
<path opacity="0.2" d="M391.396 102.82L384.864 108.148C385.085 109.22 385.213 110.312 385.248 111.408C387.626 111.174 391.003 108.595 391.376 105.995C391.567 104.947 391.574 103.871 391.396 102.82Z" fill="black"/>
<path d="M395.69 88.6792C396.204 96.6286 396.88 101.264 393.614 105.825C388.685 112.698 379.028 110.343 376.286 102.713C373.807 95.84 373.393 83.9906 380.318 79.8454C381.84 78.9249 383.559 78.4311 385.312 78.4109C387.066 78.3908 388.795 78.8448 390.335 79.7301C391.875 80.6153 393.176 81.9022 394.113 83.4685C395.051 85.0349 395.594 86.8286 395.69 88.6792Z" fill="#FFC3BD"/>
<path d="M383.312 101.626C384.194 101.524 385.039 101.2 385.778 100.681C386.516 100.161 387.126 99.4625 387.556 98.6426C387.574 98.5942 387.575 98.5403 387.558 98.4912C387.542 98.4421 387.508 98.4012 387.465 98.3762C387.442 98.3636 387.417 98.3561 387.391 98.3542C387.365 98.3522 387.339 98.3558 387.315 98.3648C387.29 98.3738 387.268 98.3879 387.248 98.4063C387.229 98.4248 387.214 98.4472 387.203 98.4721C386.795 99.2229 386.225 99.8619 385.541 100.338C384.856 100.813 384.076 101.112 383.262 101.211C383.211 101.221 383.166 101.25 383.134 101.294C383.103 101.337 383.087 101.391 383.09 101.445C383.098 101.5 383.125 101.549 383.167 101.583C383.208 101.617 383.26 101.632 383.312 101.626Z" fill="#263238"/>
<path d="M388.886 83.2447C389.199 86.7398 391.86 90.2776 391.527 92.5367C391.394 93.5307 391.075 94.4868 390.59 95.3499L395.469 96.5434C395.469 96.5434 409.409 80.7938 398.382 77.7675C393.281 67.3566 372.123 64.277 367.749 73.5051C363.102 83.234 375.863 85.5357 375.863 85.5357C375.863 85.5357 380.853 81.7635 388.886 83.2447Z" fill="#263238"/>
<path d="M400.176 96.9696C399.376 98.7897 397.926 100.2 396.144 100.891C393.785 101.797 392.414 99.6016 392.928 97.1401C393.382 94.9236 395.156 91.8121 397.606 91.9506C398.14 91.9976 398.654 92.1844 399.103 92.4943C399.551 92.8041 399.92 93.2272 400.175 93.7253C400.43 94.2234 400.563 94.7809 400.564 95.3473C400.564 95.9137 400.431 96.4713 400.176 96.9696Z" fill="#FFC3BD"/>
<path d="M347.387 359.917L360.128 361.846C360.128 361.846 367.517 312.828 371.337 284.387C372.345 276.854 374.018 266.219 376.196 254.87C378.927 240.57 382.415 225.108 385.268 212.992C388.292 200.205 390.6 191.19 390.6 191.19L363.888 189.794C363.888 189.794 350.784 256.128 349.282 280.583C347.76 306.019 347.387 359.917 347.387 359.917Z" fill="#263238"/>
<path opacity="0.2" d="M376.196 254.87C378.927 240.57 382.415 225.108 385.268 212.992L382.385 206.726C375.984 215.251 374.643 240.932 376.196 254.87Z" fill="black"/>
<path d="M378.312 190.551C378.312 190.551 382.516 259.463 385.721 282.746C389.239 308.246 398.16 363.988 398.16 363.988H412.07C412.07 363.988 410.83 311.454 407.262 286.455C403.23 258.152 404.5 191.925 404.5 191.925L378.312 190.551Z" fill="#263238"/>
<path d="M396.487 364.307H412.877V359.129L394.561 358.798L396.487 364.307Z" fill="#407BFF"/>
<path d="M346.55 360.109L360.924 362.293L362.316 356.965L345.925 354.451L346.55 360.109Z" fill="#407BFF"/>
<path d="M384.643 92.4408C384.723 93.0801 384.461 93.6449 384.068 93.6982C383.675 93.7515 383.282 93.2719 383.201 92.6326C383.121 91.9932 383.383 91.4285 383.786 91.3752C384.189 91.3219 384.562 91.7908 384.643 92.4408Z" fill="#263238"/>
<path d="M377.778 93.3785C377.849 94.0179 377.597 94.5827 377.194 94.6359C376.79 94.6892 376.417 94.2204 376.337 93.5703C376.256 92.9203 376.518 92.3662 376.911 92.3129C377.304 92.2597 377.698 92.7072 377.778 93.3785Z" fill="#263238"/>
<path d="M380.016 93.3998C379.531 95.4622 378.781 97.4448 377.788 99.2926C378.988 100.209 380.812 99.2926 380.812 99.2926L380.016 93.3998Z" fill="#ED847E"/>
<path d="M386.487 89.7981C386.424 89.8197 386.357 89.8221 386.293 89.8052C386.229 89.7882 386.17 89.7525 386.124 89.7022C385.817 89.3519 385.436 89.0833 385.012 88.9185C384.588 88.7537 384.134 88.6972 383.685 88.7538C383.639 88.7646 383.591 88.7655 383.544 88.7562C383.497 88.747 383.453 88.7278 383.413 88.7C383.374 88.6721 383.34 88.6361 383.314 88.5941C383.288 88.552 383.27 88.5049 383.262 88.4554C383.251 88.4064 383.251 88.3557 383.259 88.3063C383.268 88.2569 383.286 88.2099 383.313 88.1681C383.339 88.1263 383.373 88.0906 383.413 88.0631C383.453 88.0355 383.497 88.0168 383.544 88.0079C384.11 87.9272 384.686 87.9905 385.224 88.1925C385.762 88.3945 386.247 88.7294 386.639 89.1694C386.672 89.2041 386.699 89.2456 386.717 89.2913C386.735 89.3371 386.744 89.3862 386.744 89.4358C386.744 89.4854 386.735 89.5345 386.717 89.5803C386.699 89.626 386.672 89.6675 386.639 89.7022C386.595 89.745 386.544 89.7777 386.487 89.7981Z" fill="#263238"/>
<path d="M374.522 91.2793C374.45 91.3007 374.373 91.3007 374.301 91.2793C374.21 91.2476 374.135 91.1795 374.092 91.0898C374.048 91.0001 374.04 90.8959 374.069 90.7998C374.237 90.2208 374.535 89.693 374.937 89.261C375.338 88.8289 375.832 88.5052 376.377 88.3169C376.425 88.2959 376.477 88.2859 376.528 88.2878C376.58 88.2896 376.631 88.3032 376.678 88.3276C376.724 88.352 376.765 88.3866 376.798 88.4292C376.831 88.4718 376.854 88.5213 376.867 88.5743C376.881 88.6274 376.883 88.6829 376.874 88.7369C376.865 88.791 376.845 88.8423 376.816 88.8876C376.787 88.9329 376.748 88.9711 376.704 88.9994C376.66 89.0278 376.61 89.0458 376.559 89.0522C376.132 89.2107 375.747 89.4725 375.434 89.8167C375.12 90.1608 374.888 90.5778 374.754 91.0342C374.739 91.0927 374.709 91.1461 374.669 91.189C374.628 91.232 374.578 91.2631 374.522 91.2793Z" fill="#263238"/>
<path d="M399.44 375.326C398.924 375.365 398.41 375.223 397.979 374.921C397.844 374.796 397.739 374.639 397.674 374.463C397.609 374.287 397.586 374.096 397.606 373.908C397.606 373.798 397.635 373.689 397.69 373.595C397.745 373.501 397.824 373.425 397.918 373.376C398.765 372.917 401.204 374.505 401.486 374.686C401.516 374.707 401.539 374.735 401.554 374.77C401.568 374.804 401.573 374.841 401.567 374.878C401.564 374.916 401.549 374.952 401.526 374.98C401.502 375.009 401.471 375.029 401.436 375.038C400.783 375.214 400.114 375.31 399.44 375.326ZM398.311 373.663C398.235 373.645 398.156 373.645 398.079 373.663C398.043 373.687 398.014 373.72 397.994 373.759C397.975 373.798 397.966 373.843 397.968 373.887C397.95 374.015 397.963 374.145 398.005 374.266C398.048 374.387 398.118 374.495 398.21 374.58C399.059 374.995 400.027 375.048 400.912 374.729C400.118 374.201 399.235 373.839 398.311 373.663Z" fill="#407BFF"/>
<path d="M401.386 375.091C401.359 375.1 401.331 375.1 401.305 375.091C400.519 374.644 398.997 372.885 399.158 371.99C399.184 371.849 399.255 371.722 399.36 371.631C399.465 371.539 399.597 371.489 399.732 371.49C399.869 371.473 400.008 371.486 400.139 371.528C400.271 371.57 400.393 371.641 400.499 371.735C401.375 372.491 401.567 374.814 401.567 374.931C401.572 374.967 401.567 375.003 401.553 375.035C401.538 375.067 401.515 375.094 401.486 375.113L401.386 375.091ZM399.853 371.841H399.773C399.541 371.841 399.521 371.99 399.511 372.033C399.42 372.566 400.388 373.898 401.164 374.527C401.115 373.611 400.802 372.733 400.267 372.012C400.162 371.883 400.014 371.803 399.853 371.788V371.841Z" fill="#407BFF"/>
<path d="M349.02 371.319C347.77 371.383 345.573 371.319 344.847 370.477C344.741 370.345 344.668 370.188 344.633 370.019C344.598 369.85 344.602 369.674 344.645 369.508C344.663 369.405 344.706 369.308 344.77 369.228C344.833 369.148 344.915 369.086 345.008 369.049C346.016 368.666 348.788 370.733 349.111 370.967C349.141 370.991 349.164 371.025 349.177 371.063C349.189 371.101 349.191 371.142 349.181 371.18C349.171 371.218 349.15 371.252 349.121 371.277C349.092 371.301 349.057 371.316 349.02 371.319ZM345.149 369.401H345.099C345.062 369.415 345.03 369.44 345.005 369.472C344.981 369.503 344.964 369.541 344.958 369.582C344.928 369.693 344.926 369.809 344.951 369.921C344.975 370.033 345.026 370.136 345.099 370.221C345.502 370.722 346.722 370.989 348.425 370.946C347.306 370.179 345.744 369.252 345.149 369.401Z" fill="#407BFF"/>
<path d="M349.02 371.319C348.974 371.335 348.925 371.335 348.879 371.319C348.032 370.744 346.46 368.762 346.722 367.877C346.782 367.675 346.964 367.43 347.458 367.451C347.638 367.46 347.814 367.507 347.977 367.589C348.14 367.672 348.285 367.788 348.405 367.93C349.242 368.9 349.161 371.074 349.151 371.127C349.149 371.16 349.14 371.191 349.124 371.219C349.108 371.247 349.086 371.27 349.06 371.287L349.02 371.319ZM347.236 367.824C347.095 367.824 347.075 367.941 347.064 367.973C346.913 368.495 347.951 370.03 348.798 370.765C348.836 369.846 348.603 368.938 348.133 368.165C348.048 368.059 347.944 367.973 347.826 367.912C347.707 367.852 347.579 367.818 347.447 367.813L347.236 367.824Z" fill="#407BFF"/>
<path d="M411.264 126.679C412.211 127.915 413.018 129.034 413.834 130.238C414.651 131.442 415.437 132.614 416.223 133.818C417.762 136.233 419.224 138.72 420.608 141.277C423.459 146.472 425.761 151.982 427.473 157.709L427.553 158.007L427.664 158.423L427.856 159.265C427.936 159.765 428.027 160.33 428.077 160.778C428.162 161.677 428.2 162.581 428.188 163.484C428.153 165.09 428.025 166.691 427.805 168.28C427.389 171.225 426.81 174.143 426.071 177.017C424.639 182.591 422.827 188.047 420.648 193.342L415.195 191.552C416.072 186.128 416.919 180.619 417.544 175.249C417.876 172.574 418.088 169.921 418.179 167.363C418.226 166.162 418.205 164.96 418.118 163.761C418.068 163.218 417.997 162.696 417.917 162.27C417.917 162.056 417.826 161.897 417.786 161.715L417.715 161.545V161.46L417.635 161.257C416.758 158.934 415.679 156.611 414.54 154.299C413.401 151.987 412.101 149.706 410.77 147.436C409.439 145.167 408.028 142.929 406.597 140.712C405.881 139.647 405.145 138.496 404.41 137.409L402.192 134.266L411.264 126.679Z" fill="#FFC3BD"/>
<path d="M410.155 122.299C417.302 123.663 423.894 141.949 423.894 141.949L409.248 155.055C409.248 155.055 404.208 145.806 400.126 136.855C395.741 127.115 401.496 120.647 410.155 122.299Z" fill="#407BFF"/>
<path d="M415.971 189.975L410.931 196.177L420.265 198.969C420.265 198.969 423.42 192.692 420.457 190.551L415.971 189.975Z" fill="#FFC3BD"/>
<path d="M410.649 202.869L418.471 204.808L420.296 198.969L410.962 196.177L410.649 202.869Z" fill="#FFC3BD"/>
<path d="M252.252 262.319C252.311 263.48 252.081 264.637 251.587 265.675C251.112 266.689 250.497 267.623 249.762 268.446C248.311 270.004 246.678 271.361 244.904 272.485C241.418 274.636 237.742 276.42 233.927 277.813C226.375 280.566 218.62 282.655 210.743 284.057C195.096 286.906 179.243 288.297 163.367 288.213C147.507 288.293 131.671 286.903 116.041 284.057C108.164 282.654 100.409 280.565 92.857 277.813C89.0452 276.42 85.372 274.636 81.8899 272.485C80.1121 271.361 78.4761 270.004 77.0213 268.446C76.2899 267.62 75.6753 266.687 75.1968 265.675C74.7069 264.635 74.4778 263.479 74.5315 262.319C74.5248 262.178 74.5715 262.039 74.6613 261.934C74.7511 261.829 74.8767 261.766 75.0103 261.759C75.144 261.752 75.2748 261.802 75.3741 261.897C75.4733 261.992 75.5328 262.124 75.5395 262.266V262.319C75.89 264.178 76.9183 265.816 78.4022 266.88C79.8902 268.062 81.5122 269.043 83.2306 269.799C86.7428 271.377 90.3831 272.615 94.1069 273.497C97.897 274.449 101.714 275.245 105.558 275.884C109.368 276.523 113.198 277.12 117.039 277.557C132.457 279.285 147.953 280.125 163.457 280.072C178.962 280.125 194.458 279.286 209.876 277.557C213.726 277.12 217.547 276.491 221.357 275.884C225.167 275.277 228.957 274.467 232.677 273.497C236.4 272.615 240.041 271.377 243.553 269.799C245.274 269.043 246.9 268.062 248.391 266.88C249.869 265.811 250.893 264.175 251.244 262.319V262.266C251.262 262.126 251.331 261.999 251.437 261.913C251.542 261.827 251.676 261.789 251.808 261.807C251.927 261.825 252.037 261.885 252.118 261.979C252.199 262.072 252.246 262.192 252.252 262.319Z" fill="#407BFF"/>
<path opacity="0.5" d="M252.252 262.319C252.311 263.48 252.081 264.637 251.587 265.675C251.112 266.689 250.497 267.623 249.762 268.446C248.311 270.004 246.678 271.361 244.904 272.485C241.418 274.636 237.742 276.42 233.927 277.813C226.375 280.566 218.62 282.655 210.743 284.057C195.096 286.906 179.243 288.297 163.367 288.213C147.507 288.293 131.671 286.903 116.041 284.057C108.164 282.654 100.409 280.565 92.857 277.813C89.0452 276.42 85.372 274.636 81.8899 272.485C80.1121 271.361 78.4761 270.004 77.0213 268.446C76.2899 267.62 75.6753 266.687 75.1968 265.675C74.7069 264.635 74.4778 263.479 74.5315 262.319C74.5248 262.178 74.5715 262.039 74.6613 261.934C74.7511 261.829 74.8767 261.766 75.0103 261.759C75.144 261.752 75.2748 261.802 75.3741 261.897C75.4733 261.992 75.5328 262.124 75.5395 262.266V262.319C75.89 264.178 76.9183 265.816 78.4022 266.88C79.8902 268.062 81.5122 269.043 83.2306 269.799C86.7428 271.377 90.3831 272.615 94.1069 273.497C97.897 274.449 101.714 275.245 105.558 275.884C109.368 276.523 113.198 277.12 117.039 277.557C132.457 279.285 147.953 280.125 163.457 280.072C178.962 280.125 194.458 279.286 209.876 277.557C213.726 277.12 217.547 276.491 221.357 275.884C225.167 275.277 228.957 274.467 232.677 273.497C236.4 272.615 240.041 271.377 243.553 269.799C245.274 269.043 246.9 268.062 248.391 266.88C249.869 265.811 250.893 264.175 251.244 262.319V262.266C251.262 262.126 251.331 261.999 251.437 261.913C251.542 261.827 251.676 261.789 251.808 261.807C251.927 261.825 252.037 261.885 252.118 261.979C252.199 262.072 252.246 262.192 252.252 262.319Z" fill="white"/>
<path d="M429.337 262.319C429.391 263.479 429.162 264.635 428.672 265.675C428.197 266.689 427.582 267.623 426.848 268.446C425.393 270.004 423.757 271.361 421.979 272.485C418.497 274.636 414.824 276.42 411.012 277.813C403.46 280.565 395.705 282.654 387.828 284.057C356.495 289.598 324.509 289.598 293.177 284.057C285.299 282.655 277.545 280.566 269.993 277.813C266.181 276.42 262.508 274.636 259.026 272.485C257.246 271.364 255.61 270.007 254.157 268.446C253.423 267.623 252.808 266.689 252.333 265.675C251.838 264.637 251.609 263.48 251.667 262.319C251.661 262.178 251.707 262.039 251.797 261.934C251.887 261.829 252.013 261.766 252.146 261.759C252.28 261.752 252.411 261.802 252.51 261.897C252.609 261.992 252.669 262.124 252.675 262.266V262.319C253.026 264.175 254.05 265.811 255.528 266.88C257.02 268.062 258.645 269.043 260.366 269.799C263.879 271.377 267.519 272.615 271.243 273.497C274.962 274.467 278.752 275.255 282.563 275.884C286.373 276.513 290.193 277.12 294.044 277.557C309.445 279.284 324.924 280.123 340.412 280.072C355.916 280.125 371.412 279.285 386.83 277.557C390.671 277.12 394.501 276.491 398.311 275.884C402.121 275.277 405.901 274.467 409.631 273.497C413.355 272.615 416.995 271.377 420.507 269.799C422.227 269.045 423.849 268.064 425.336 266.88C426.82 265.816 427.848 264.178 428.198 262.319V262.266C428.216 262.126 428.285 261.999 428.391 261.913C428.497 261.827 428.631 261.789 428.763 261.807C428.833 261.8 428.903 261.808 428.97 261.829C429.037 261.851 429.099 261.887 429.152 261.935C429.206 261.983 429.25 262.041 429.282 262.107C429.313 262.173 429.332 262.245 429.337 262.319Z" fill="#407BFF"/>
<path opacity="0.5" d="M429.337 262.319C429.391 263.479 429.162 264.635 428.672 265.675C428.197 266.689 427.582 267.623 426.848 268.446C425.393 270.004 423.757 271.361 421.979 272.485C418.497 274.636 414.824 276.42 411.012 277.813C403.46 280.565 395.705 282.654 387.828 284.057C356.495 289.598 324.509 289.598 293.177 284.057C285.299 282.655 277.545 280.566 269.993 277.813C266.181 276.42 262.508 274.636 259.026 272.485C257.246 271.364 255.61 270.007 254.157 268.446C253.423 267.623 252.808 266.689 252.333 265.675C251.838 264.637 251.609 263.48 251.667 262.319C251.661 262.178 251.707 262.039 251.797 261.934C251.887 261.829 252.013 261.766 252.146 261.759C252.28 261.752 252.411 261.802 252.51 261.897C252.609 261.992 252.669 262.124 252.675 262.266V262.319C253.026 264.175 254.05 265.811 255.528 266.88C257.02 268.062 258.645 269.043 260.366 269.799C263.879 271.377 267.519 272.615 271.243 273.497C274.962 274.467 278.752 275.255 282.563 275.884C286.373 276.513 290.193 277.12 294.044 277.557C309.445 279.284 324.924 280.123 340.412 280.072C355.916 280.125 371.412 279.285 386.83 277.557C390.671 277.12 394.501 276.491 398.311 275.884C402.121 275.277 405.901 274.467 409.631 273.497C413.355 272.615 416.995 271.377 420.507 269.799C422.227 269.045 423.849 268.064 425.336 266.88C426.82 265.816 427.848 264.178 428.198 262.319V262.266C428.216 262.126 428.285 261.999 428.391 261.913C428.497 261.827 428.631 261.789 428.763 261.807C428.833 261.8 428.903 261.808 428.97 261.829C429.037 261.851 429.099 261.887 429.152 261.935C429.206 261.983 429.25 262.041 429.282 262.107C429.313 262.173 429.332 262.245 429.337 262.319Z" fill="white"/>
<path d="M78.1906 227.324H72.6466V384.149H78.1906V227.324Z" fill="#407BFF"/>
<path d="M72.576 381.954H78.2208C78.6138 381.954 78.9907 382.119 79.2686 382.412C79.5464 382.706 79.7026 383.105 79.7026 383.52V384.138H71.1346V383.52C71.1344 383.112 71.285 382.72 71.5542 382.427C71.8234 382.135 72.19 381.965 72.576 381.954Z" fill="#407BFF"/>
<path d="M78.6139 260.571H72.2333V264.077H78.6139V260.571Z" fill="#407BFF"/>
<path opacity="0.3" d="M78.1906 264.077H72.6466V264.887H78.1906V264.077Z" fill="black"/>
<path d="M75.4186 230.159C77.9794 230.159 80.0554 227.964 80.0554 225.257C80.0554 222.55 77.9794 220.355 75.4186 220.355C72.8577 220.355 70.7818 222.55 70.7818 225.257C70.7818 227.964 72.8577 230.159 75.4186 230.159Z" fill="#407BFF"/>
<path d="M431.353 227.324H425.809V384.149H431.353V227.324Z" fill="#407BFF"/>
<path d="M425.779 381.954H431.424C431.817 381.954 432.194 382.119 432.472 382.412C432.75 382.706 432.906 383.105 432.906 383.52V384.138H424.338V383.52C424.338 383.112 424.488 382.72 424.757 382.427C425.027 382.135 425.393 381.965 425.779 381.954Z" fill="#407BFF"/>
<path d="M431.767 260.571H425.386V264.077H431.767V260.571Z" fill="#407BFF"/>
<path opacity="0.3" d="M431.353 264.077H425.809V264.887H431.353V264.077Z" fill="black"/>
<path d="M428.581 230.159C431.142 230.159 433.218 227.964 433.218 225.257C433.218 222.55 431.142 220.355 428.581 220.355C426.021 220.355 423.945 222.55 423.945 225.257C423.945 227.964 426.021 230.159 428.581 230.159Z" fill="#407BFF"/>
<path d="M254.772 227.324H249.228V384.149H254.772V227.324Z" fill="#407BFF"/>
<path d="M249.198 381.954H254.802C255.195 381.954 255.572 382.119 255.85 382.412C256.128 382.706 256.284 383.105 256.284 383.52V384.138H247.716V383.52C247.716 383.105 247.872 382.706 248.15 382.412C248.428 382.119 248.805 381.954 249.198 381.954Z" fill="#407BFF"/>
<path d="M255.185 260.571H248.805V264.077H255.185V260.571Z" fill="#407BFF"/>
<path opacity="0.3" d="M254.772 264.077H249.228V264.887H254.772V264.077Z" fill="black"/>
<path d="M252 230.159C254.561 230.159 256.637 227.964 256.637 225.257C256.637 222.55 254.561 220.355 252 220.355C249.439 220.355 247.363 222.55 247.363 225.257C247.363 227.964 249.439 230.159 252 230.159Z" fill="#407BFF"/>
</svg>
